<svg width="20" height="18" viewBox="0 0 20 18" fill="none" xmlns="http://www.w3.org/2000/svg">
<g clip-path="url(#clip0_807_16)">
<path d="M0.34375 5.71094H4.23275V17.4669H0.34375V5.71094Z" fill="#613842"/>
<path d="M14.2691 5.32242C13.5168 5.29903 12.7714 5.47098 12.1054 5.82149C11.4394 6.17201 10.8757 6.68912 10.4691 7.32242V5.71042H6.58105V17.4674H10.4991V11.0954C10.4991 9.74942 11.1871 8.43342 12.7421 8.43342C13.0792 8.43886 13.4119 8.51176 13.7205 8.64784C14.0291 8.78391 14.3073 8.98039 14.5387 9.2257C14.7701 9.47101 14.9501 9.76017 15.068 10.0761C15.1858 10.3921 15.2392 10.7285 15.2251 11.0654V17.4654H19.1441V10.7954C19.1441 6.16042 16.0031 5.32242 14.2691 5.32242Z" fill="#613842"/>
<path d="M2.3 0.00309685C1.72142 -0.0277117 1.15426 0.172332 0.723032 0.559309C0.291808 0.946286 0.0317667 1.48857 0 2.0671C0.0317667 2.64563 0.291808 3.18791 0.723032 3.57488C1.15426 3.96186 1.72142 4.16191 2.3 4.1311C2.87858 4.16191 3.44574 3.96186 3.87697 3.57488C4.30819 3.18791 4.56823 2.64563 4.6 2.0671C4.56823 1.48857 4.30819 0.946286 3.87697 0.559309C3.44574 0.172332 2.87858 -0.0277117 2.3 0.00309685V0.00309685Z" fill="#613842"/>
</g>
<defs>
<clipPath id="clip0_807_16">
<rect width="19.144" height="17.469" fill="white"/>
</clipPath>
</defs>
</svg>
