<svg width="19" height="16" viewBox="0 0 19 16" fill="none" xmlns="http://www.w3.org/2000/svg">
<path d="M18.117 2.072C17.7751 2.19992 17.4245 2.30352 17.068 2.382C17.034 2.38924 16.9985 2.38518 16.967 2.37045C16.9355 2.35572 16.9096 2.33111 16.8933 2.30036C16.877 2.26961 16.8712 2.23439 16.8768 2.20004C16.8823 2.16569 16.8989 2.13408 16.924 2.11C17.3345 1.71884 17.673 1.25849 17.924 0.750001C17.938 0.719953 17.9423 0.686296 17.9364 0.653681C17.9304 0.621066 17.9145 0.591105 17.8908 0.567938C17.8671 0.544771 17.8367 0.529544 17.804 0.52436C17.7713 0.519176 17.7377 0.524292 17.708 0.539001C17.0606 0.886369 16.3543 1.1105 15.625 1.2C14.8613 0.44003 13.8304 0.00928638 12.753 1.14166e-06C12.2344 -0.000393358 11.7209 0.101455 11.2417 0.299721C10.7625 0.497987 10.3271 0.788779 9.96046 1.15546C9.59378 1.52215 9.30299 1.95753 9.10472 2.4367C8.90645 2.91587 8.80461 3.42943 8.805 3.948C8.80374 4.23973 8.83391 4.53074 8.895 4.816C7.32941 4.75968 5.79184 4.38407 4.37661 3.71223C2.96139 3.04038 1.69835 2.08647 0.665 0.909002C0.648544 0.888485 0.627283 0.872342 0.603101 0.862001C0.578918 0.85166 0.552559 0.847439 0.526357 0.849714C0.500154 0.851988 0.474917 0.860687 0.452877 0.875039C0.430838 0.889392 0.412676 0.908957 0.4 0.932001C0.0202506 1.71379 -0.0931455 2.59841 0.077134 3.45071C0.247414 4.30301 0.692007 5.07614 1.343 5.652C1.36887 5.67344 1.38733 5.70247 1.39577 5.73499C1.40422 5.7675 1.40221 5.80185 1.39004 5.83316C1.37787 5.86447 1.35615 5.89116 1.32796 5.90944C1.29978 5.92772 1.26655 5.93666 1.233 5.935C0.889177 5.91977 0.552322 5.83292 0.244001 5.68C0.218944 5.66754 0.191057 5.66187 0.163124 5.66356C0.135192 5.66524 0.10819 5.67422 0.0848128 5.68961C0.061436 5.70499 0.0425023 5.72623 0.0299014 5.75122C0.0173005 5.7762 0.011473 5.80406 0.0130006 5.832C0.0449827 6.58604 0.305684 7.31249 0.760456 7.91481C1.21523 8.51712 1.84253 8.96677 2.559 9.204C2.59214 9.21619 2.62032 9.239 2.63914 9.26887C2.65796 9.29875 2.66637 9.33401 2.66306 9.36916C2.65975 9.40432 2.64491 9.43739 2.62084 9.46323C2.59677 9.48906 2.56483 9.50621 2.53 9.512C2.23095 9.54577 1.92905 9.54577 1.63 9.512C1.60432 9.5096 1.57844 9.51341 1.55454 9.5231C1.53064 9.53279 1.50942 9.54808 1.49266 9.56768C1.4759 9.58728 1.4641 9.61062 1.45824 9.63574C1.45238 9.66085 1.45264 9.68701 1.459 9.712C1.71233 10.3649 2.1381 10.9367 2.69091 11.3666C3.24373 11.7965 3.90285 12.0683 4.598 12.153C4.62832 12.1571 4.65683 12.1698 4.68014 12.1896C4.70346 12.2094 4.72061 12.2355 4.72955 12.2648C4.7385 12.294 4.73887 12.3252 4.73062 12.3547C4.72237 12.3842 4.70584 12.4106 4.683 12.431C3.41991 13.4425 1.83267 13.9613 0.216 13.891C0.180221 13.8902 0.145204 13.9014 0.116547 13.9228C0.0878896 13.9443 0.0672465 13.9747 0.0579177 14.0093C0.048589 14.0438 0.0511133 14.0805 0.065087 14.1134C0.0790606 14.1464 0.103677 14.1737 0.135001 14.191C1.84071 15.0854 3.73802 15.5524 5.664 15.552C7.16035 15.5614 8.6429 15.2656 10.0211 14.6827C11.3993 14.0998 12.6441 13.242 13.6796 12.1618C14.7151 11.0815 15.5195 9.80152 16.0436 8.39993C16.5678 6.99835 16.8006 5.50462 16.728 4.01V3.86C17.3339 3.43529 17.8657 2.91364 18.302 2.316C18.3221 2.28822 18.3328 2.25469 18.3325 2.22037C18.3321 2.18605 18.3207 2.15276 18.3 2.12541C18.2792 2.09806 18.2502 2.07811 18.2173 2.06849C18.1844 2.05887 18.1492 2.0601 18.117 2.072Z" fill="#613842"/>
</svg>
