<svg width="15" height="15" viewBox="0 0 15 15" fill="none" xmlns="http://www.w3.org/2000/svg">
<path d="M13.5459 12.3147V7.67681C13.5459 7.35413 13.4793 7.03485 13.35 6.73851C13.2207 6.44218 13.0316 6.17503 12.7941 5.95344L8.3703 1.82398C8.1475 1.61593 7.85251 1.5 7.5459 1.5C7.23928 1.5 6.9443 1.61593 6.7215 1.82398L2.2977 5.95344C2.06023 6.17503 1.87107 6.44218 1.7418 6.73851C1.61252 7.03485 1.54586 7.35413 1.5459 7.67681V12.3147C1.5459 12.6291 1.67233 12.9306 1.89737 13.1528C2.12241 13.3751 2.42764 13.5 2.7459 13.5H12.3459C12.6642 13.5 12.9694 13.3751 13.1944 13.1528C13.4195 12.9306 13.5459 12.6291 13.5459 12.3147Z" fill="black" stroke="#171821" stroke-width="1.2" stroke-linecap="round" stroke-linejoin="round"/>
</svg>
