<svg width="13" height="13" viewBox="0 0 13 13" fill="none" xmlns="http://www.w3.org/2000/svg">
<path d="M4.06569 10.3841L4.50163 10.6174C5.17669 10.9783 5.93056 11.1665 6.69602 11.1653H6.69802C7.62089 11.1653 8.52302 10.8917 9.29036 10.3789C10.0577 9.86623 10.6558 9.13749 11.0089 8.28488C11.3621 7.43226 11.4545 6.49407 11.2744 5.58894C11.0944 4.68381 10.65 3.85239 9.99744 3.19983C9.34487 2.54727 8.51346 2.10286 7.60833 1.92282C6.7032 1.74278 5.765 1.83519 4.91239 2.18835C4.05978 2.54151 3.33103 3.13958 2.81832 3.90691C2.3056 4.67424 2.03194 5.57638 2.03194 6.49924V6.50124C2.03076 7.26671 2.219 8.02057 2.57987 8.69563L2.81318 9.13158L2.45456 10.7427L4.06569 10.3841ZM0.698777 12.4985L1.40402 9.32422C0.916048 8.41002 0.673202 7.38501 0.699146 6.34905C0.725091 5.31309 1.01894 4.30152 1.55206 3.41289C2.08519 2.52426 2.8394 1.78888 3.74123 1.2784C4.64306 0.767914 5.66174 0.499739 6.69802 0.5C8.28912 0.5 9.81505 1.13206 10.9401 2.25714C12.0652 3.38221 12.6973 4.90815 12.6973 6.49924C12.6975 7.53553 12.4294 8.55421 11.9189 9.45603C11.4084 10.3579 10.673 11.1121 9.78438 11.6452C8.89575 12.1783 7.88418 12.4722 6.84822 12.4981C5.81226 12.5241 4.78725 12.2812 3.87304 11.7932L0.698777 12.4985Z" fill="black"/>
<path d="M4.80592 5.31319C4.80592 6.25488 4.94564 7.29411 4.80209 8.22718C4.77659 8.39295 4.53732 7.99419 4.53022 7.97062C4.34613 7.35879 4.38009 6.57033 4.40386 5.95648C4.43695 5.10221 4.44149 3.76422 5.16969 3.13822C6.09382 2.3438 6.91425 5.20242 6.65158 5.90288C6.48962 6.33477 5.9046 6.34015 5.54878 6.15177C5.06852 5.89752 4.84438 5.18215 4.83656 4.67755C4.81859 3.51881 5.45624 4.26277 5.41093 4.98771C5.38272 5.43904 5.25458 6.10333 4.80592 6.33174C4.48661 6.4943 4.19653 6.36562 4.08987 6.02924C3.97114 5.65478 3.96276 5.04629 4.23155 4.73115C4.38839 4.54727 4.87132 4.46203 4.99738 4.7235C5.13657 5.01218 5.1434 5.60007 4.83273 5.78417C4.46983 5.99923 4.04774 5.77944 3.70312 5.65781" stroke="black" stroke-linecap="round"/>
<path d="M3.24536 4.35156C3.24536 5.18616 3.24536 6.02076 3.24536 6.85535C3.24536 6.91379 3.28826 7.29471 3.21289 7.14397" stroke="black" stroke-linecap="round"/>
<path d="M5.45354 6.20082C5.45354 6.23146 5.47634 6.40289 5.44633 6.4209C5.36452 6.46998 5.28958 5.39204 5.2948 5.28625C5.29904 5.20038 5.40551 4.64645 5.60507 4.86415C6.01533 5.3117 5.91151 7.04988 5.07112 6.98371C4.63551 6.94941 4.5385 6.32774 4.60211 6.006C4.65218 5.75277 4.75926 5.40471 4.99897 5.2628C5.1652 5.16439 5.38052 5.22032 5.48241 5.37825C5.65307 5.64278 5.79903 6.12139 5.47519 6.32529C4.96379 6.64729 4.03195 6.36717 3.72903 5.86891C3.5664 5.6014 3.41516 4.81822 3.86973 4.72885C4.23441 4.65717 4.55291 5.05284 4.53898 5.38727C4.52574 5.70505 4.21146 5.78514 3.94189 5.73181C3.4317 5.6309 3.21187 5.06525 3.26002 4.59176C3.30932 4.10701 3.83958 3.73255 4.32792 3.84495C4.57088 3.90087 4.7685 4.20891 4.56784 4.40957C4.09603 4.88138 3.60338 4.10038 3.9022 3.67539C4.07336 3.43197 4.49249 3.37856 4.76446 3.37594C4.94135 3.37424 5.17467 3.49419 4.99355 3.69343C4.88403 3.8139 4.61288 3.77574 4.51192 3.66637C4.40562 3.55121 4.33519 3.36403 4.32973 3.20818C4.31735 2.85563 5.13816 2.89106 5.3381 2.91054C5.54991 2.93117 5.82615 3.0242 5.85401 3.27492C5.86725 3.39413 5.68571 3.39403 5.61229 3.38677C5.3782 3.36359 5.16666 3.04602 5.2479 2.81854C5.43567 2.29279 6.30505 2.38804 6.70183 2.50827C6.87236 2.55995 7.09713 2.62984 7.1528 2.82215C7.18354 2.92834 7.18984 3.05082 7.08426 3.11618C6.92276 3.21616 6.62896 3.26783 6.53227 3.05124C6.3706 2.68911 6.94034 2.6906 7.12394 2.7518C7.48493 2.87213 7.79042 3.22544 7.79859 3.61766C7.80555 3.95164 7.33981 3.73814 7.2466 3.57076C7.14876 3.39504 7.1247 3.12571 7.37648 3.09814C7.88874 3.04206 8.28361 3.39034 8.43176 3.85758C8.47562 3.99592 8.48834 4.42258 8.20447 4.24361C7.88835 4.04432 7.66807 3.47679 7.74087 3.10897C7.79311 2.84499 8.06693 2.93238 8.19906 3.09093C8.26202 3.16648 8.33356 3.33004 8.32172 3.43006C8.29924 3.61992 7.75082 3.23938 7.69758 3.17571C7.52213 2.96594 7.81271 2.92583 7.95192 2.95924C8.13381 3.0029 8.25731 3.20981 8.20627 3.4012C8.17531 3.5173 7.96244 3.52731 7.92847 3.40841C7.86997 3.20366 8.20666 3.20055 8.33074 3.22081C8.74672 3.28872 9.15481 3.81304 9.35895 4.15161C9.39284 4.20781 9.65584 4.86219 9.53032 4.83709C9.20897 4.77282 8.97003 4.10111 8.88453 3.83774C8.83356 3.6807 8.63415 3.00779 8.86469 2.90693C9.201 2.7598 9.60466 3.30366 9.74679 3.53108C9.84935 3.69518 9.91267 3.87202 10.0011 4.04157C10.1471 4.32142 10.3427 4.57658 10.407 4.8912C10.4933 5.31321 10.3915 5.7198 10.2519 6.11063C10.1639 6.35695 10.0828 6.60661 9.9831 6.85022C9.95464 6.91978 9.75372 7.36233 9.90192 7.36974C9.99791 7.37454 10.0618 7.34974 10.1364 7.29037C10.3595 7.1128 10.5976 6.94548 10.793 6.73658C10.8937 6.62896 10.9687 6.516 11.0221 6.37941C11.0284 6.36349 11.0897 6.14757 11.0961 6.15031C11.1235 6.16206 10.7884 7.23297 10.7804 7.27413C10.7106 7.63474 10.7712 8.00049 10.7443 8.36368C10.7253 8.62057 10.5844 8.76874 10.407 8.94273C10.1087 9.23533 9.77455 9.46777 9.41487 9.6733C8.95987 9.9333 8.40264 10.1622 7.87796 10.1622C7.52611 10.1622 7.01067 10.2453 6.80285 9.88435C6.5566 9.45665 6.53188 8.89214 6.51062 8.41238C6.47179 7.53587 6.44296 6.22924 7.3368 5.71738C7.69222 5.51385 8.26387 5.35026 8.56344 5.73542C8.70653 5.9194 8.71978 6.22131 8.72579 6.44254C8.73295 6.7062 8.73815 7.87616 8.24054 7.75577C7.99596 7.6966 7.858 7.41863 7.75891 7.21461C7.50768 6.69738 7.41761 6.13255 7.36927 5.56405C7.33772 5.19302 7.24326 4.60451 7.44864 4.25443C7.7948 3.66439 8.11995 4.63578 8.17741 4.84791C8.42208 5.75123 8.61878 6.80555 8.4516 7.74134C8.44653 7.76973 8.24506 8.53221 8.03671 8.34384C7.83611 8.16247 8.14174 7.51872 8.2207 7.36252C8.38259 7.04228 8.69632 6.56548 9.11362 6.76905C9.55966 6.98663 9.54282 7.60045 9.52311 8.01733C9.50989 8.29682 9.48623 8.56967 9.34813 8.81826C9.32845 8.85367 9.20068 9.09182 9.12264 9.07621C8.95039 9.04176 9.12812 8.26924 9.1479 8.1887C9.17654 8.0721 9.38739 7.66272 9.32648 8.02816C9.29788 8.1998 9.21894 8.35481 9.13347 8.50438C8.92927 8.86172 8.70186 9.21501 8.43717 9.53079C8.20989 9.80194 7.94396 10.0467 7.66871 10.2686C7.57607 10.3433 7.46962 10.4191 7.35123 10.4472C7.25127 10.4708 7.10577 10.391 6.99767 10.3894C6.85042 10.3874 6.70299 10.3894 6.55572 10.3894C6.19147 10.3894 5.79311 10.4953 5.46798 10.2668C5.29238 10.1434 5.08654 9.96728 4.95026 9.80138C4.55864 9.32462 4.3399 8.7043 4.08981 8.14902C3.76034 7.41748 3.26543 6.78966 2.80905 6.13769C2.72901 6.02335 2.71278 5.91646 2.74411 6.12686C2.78275 6.38629 2.85017 6.64193 2.89564 6.90073C2.97035 7.32601 3.18609 8.60328 3.1121 8.17788C2.96515 7.33288 3.10805 6.45727 2.91368 5.61997C2.86396 5.40583 2.80465 5.19739 2.72607 4.99222C2.68323 4.88036 2.66113 4.83293 2.66113 4.99222C2.66113 6.28486 3.08324 7.53381 3.08324 8.82367C3.08324 8.99529 3.10966 9.15575 3.11571 9.32515C3.12091 9.47076 3.19665 9.54737 3.17885 9.70757C3.16125 9.86591 3.13415 9.86701 3.01109 9.90961C2.96262 9.92639 2.75854 10.0942 2.75854 9.98357C2.75854 9.8958 2.77112 9.8443 2.83791 9.77973C3.28404 9.34848 3.98543 9.1206 4.5516 8.91026C4.98518 8.74918 5.51316 8.64372 5.90091 8.37631C6.00873 8.30195 5.96718 7.9596 5.97126 7.85138C5.97224 7.82539 5.94962 7.425 5.85761 7.50864C5.79211 7.56819 5.76097 7.69953 5.72954 7.77742C5.64093 7.997 5.5599 8.21933 5.46798 8.43764C5.2409 8.97695 4.97763 9.52362 4.6905 10.0341C4.39193 10.5649 4.30702 9.49707 4.28463 9.31793" stroke="black" stroke-width="2" stroke-linecap="round"/>
</svg>
