<svg width="14" height="16" viewBox="0 0 14 16" fill="none" xmlns="http://www.w3.org/2000/svg">
<g style="mix-blend-mode:darken">
<rect y="0.919739" width="14" height="14.3162" fill="#87888C"/>
</g>
<path d="M13 13.0013V8.25863C13 7.92867 12.9334 7.60218 12.8041 7.29915C12.6748 6.99612 12.4857 6.72294 12.2482 6.49634L7.8244 2.27362C7.6016 2.06087 7.30661 1.94232 7 1.94232C6.69339 1.94232 6.3984 2.06087 6.1756 2.27362L1.7518 6.49634C1.51433 6.72294 1.32517 6.99612 1.1959 7.29915C1.06663 7.60218 0.999965 7.92867 1 8.25863V13.0013C1 13.3228 1.12643 13.631 1.35147 13.8583C1.57652 14.0856 1.88174 14.2133 2.2 14.2133H11.8C12.1183 14.2133 12.4235 14.0856 12.6485 13.8583C12.8736 13.631 13 13.3228 13 13.0013Z" fill="#A9DFD8" stroke="#A9DFD8" stroke-width="1.2" stroke-linecap="round" stroke-linejoin="round"/>
</svg>
