<svg width="26" height="22" viewBox="0 0 26 22" fill="none" xmlns="http://www.w3.org/2000/svg">
<path d="M0 0V18C0 20.21 1.79 22 4 22H22C24.21 22 26 20.21 26 18V7H20V0H0ZM2 2H18V18C18 18.73 18.22 19.41 18.563 20H4C2.81 20 2 19.19 2 18V2ZM4 4V9H16V4H4ZM6 6H14V7H6V6ZM20 9H24V18C24 19.19 23.19 20 22 20C20.81 20 20 19.19 20 18V9ZM4 10V12H9V10H4ZM11 10V12H16V10H11ZM4 13V15H9V13H4ZM11 13V15H16V13H11ZM4 16V18H9V16H4ZM11 16V18H16V16H11Z" fill="black"/>
<path d="M5.87142 6.45508C6.11866 6.45508 7.25979 6.42619 7.36539 6.6374C7.57796 7.06254 4.8204 6.68302 6.16515 6.38418C6.60341 6.28679 9.77586 6.09638 9.68486 6.59688C9.60286 7.04784 7.6983 7.35683 7.56797 6.9919C7.37809 6.46024 9.85341 6.29297 10.009 6.72856C10.1752 7.194 8.03611 7.36622 8.84924 6.91087C9.50107 6.54585 10.619 6.70941 11.2902 6.91594C11.6069 7.01338 12.0933 7.46167 11.5232 7.56924C11.2642 7.6181 10.5549 7.77928 10.6167 7.31602C10.6632 6.96692 11.5519 6.91784 11.741 6.89568C11.7499 6.89463 13.7901 6.84325 13.2248 7.25525C12.2785 7.94495 11.2476 6.60568 12.607 6.37912C12.7349 6.35779 13.5705 6.32214 13.235 6.65766C13.0189 6.87373 12.4659 6.94788 12.1714 6.90581C11.5944 6.82337 13.2852 6.43191 12.8501 6.6374C12.3059 6.89438 11.5784 6.88337 11.0421 6.63233C10.6649 6.45578 10.3727 6.09747 10.956 5.99929C11.4396 5.91789 12.3957 5.72445 12.7437 6.22719C12.9892 6.5818 11.3777 6.72845 11.1586 6.7083C10.9982 6.69355 10.135 6.54749 10.5863 6.27277C11.0135 6.01273 11.7133 6.03635 12.1411 6.29302C13.2366 6.95035 10.2118 7.04724 10.4546 6.68298C10.7609 6.22355 12.2832 6.48736 12.688 6.5665C12.8163 6.59157 14.5255 7.22276 13.9642 7.5034C13.5108 7.73012 12.7653 7.60563 12.3588 7.32615C11.932 7.03273 12.668 6.85971 12.8501 6.83997C12.9036 6.83417 13.768 6.75258 13.5641 6.95645C13.4424 7.07815 13.0521 7.17386 12.8906 7.07293C12.6115 6.89851 13.257 6.58446 13.3666 6.5665C13.6716 6.5165 14.207 6.44438 14.3846 6.76401C14.4498 6.88139 14.1173 6.8186 14.187 6.74881C14.3371 6.5988 14.9701 6.53296 14.8201 6.68298C14.4285 7.07455 12.9347 6.73606 12.5259 6.6374C12.4347 6.61538 11.796 6.4647 11.8473 6.24238C11.8657 6.16276 12.2166 6.14927 12.2727 6.18667C12.4097 6.27797 11.9508 6.26163 11.7866 6.27277C11.0858 6.32027 10.3822 6.35876 9.67979 6.36392C9.60889 6.36445 8.91853 6.43192 8.8695 6.34367C8.84612 6.30158 9.38802 6.14891 9.42151 6.14109C9.64952 6.08789 10.2637 6.0966 9.68992 6.22212C9.25971 6.31623 8.49446 6.38855 8.06933 6.25251C7.54123 6.08352 9.17118 6.07735 9.72537 6.09552C10.9763 6.13653 9.73234 6.37341 9.19362 6.34367C9.10166 6.33859 7.37259 6.12056 7.71483 5.90814C7.93913 5.76892 8.27467 5.75837 8.52512 5.74608C9.69696 5.68856 10.9024 5.76279 12.0651 5.90814C12.1651 5.92063 14.0449 6.38761 13.2147 6.52598C13.0774 6.54887 12.0663 6.64132 12.5867 6.4956C13.0332 6.37057 13.4522 6.36392 13.9136 6.36392C14.2014 6.36392 13.0776 6.45508 12.9108 6.45508C11.6163 6.45508 13.246 5.74452 13.5996 6.01955C13.6927 6.09197 13.444 5.91826 13.5743 5.91826C13.6545 5.91826 13.8456 6.28405 13.8933 6.34367C14.0772 6.57353 14.6226 6.47303 14.6226 6.18161" stroke="black" stroke-linecap="round"/>
</svg>
