<svg width="14" height="13" viewBox="0 0 14 13" fill="none" xmlns="http://www.w3.org/2000/svg">
<path d="M1.24711 5.20556C1.27444 4.90485 1.429 4.62425 1.68002 4.41966C1.93104 4.21507 2.2601 4.1015 2.60167 4.10156H10.7929C11.1344 4.1015 11.4635 4.21507 11.7145 4.41966C11.9655 4.62425 12.1201 4.90485 12.1474 5.20556L12.6929 11.2056C12.7079 11.3707 12.6841 11.5368 12.6228 11.6933C12.5616 11.8499 12.4643 11.9936 12.3372 12.1153C12.21 12.2371 12.0556 12.3342 11.8839 12.4007C11.7121 12.4672 11.5266 12.5015 11.339 12.5016H2.0555C1.86795 12.5015 1.68245 12.4672 1.51067 12.4007C1.33889 12.3342 1.18455 12.2371 1.05738 12.1153C0.930197 11.9936 0.832933 11.8499 0.771706 11.6933C0.71048 11.5368 0.686617 11.3707 0.70162 11.2056L1.24711 5.20556V5.20556Z" stroke="black" stroke-linecap="round" stroke-linejoin="round"/>
<path d="M9.41402 5.9V2.9C9.41402 2.26348 9.12774 1.65303 8.61815 1.20294C8.10857 0.752857 7.41742 0.5 6.69676 0.5C5.97609 0.5 5.28495 0.752857 4.77536 1.20294C4.26577 1.65303 3.97949 2.26348 3.97949 2.9V5.9" stroke="black" stroke-linecap="round" stroke-linejoin="round"/>
<path d="M11.003 6.39114C10.9917 6.30051 10.358 6.35911 10.2462 6.32808C10.0156 6.26401 9.78637 6.22732 9.54784 6.20195C9.29054 6.17458 8.86395 6.20686 8.62522 6.0875C8.52411 6.03694 8.88993 5.89648 8.91952 5.88662C9.1335 5.81529 9.33098 5.80253 9.55484 5.80253C9.92527 5.80253 10.271 5.78137 10.6246 5.90764C10.7855 5.96509 10.6718 6.01275 10.5616 6.01275C10.2843 6.01275 10.0054 6.02663 9.73236 5.97071C8.59546 5.73785 7.43992 5.64634 6.29414 5.48721C5.95966 5.44075 5.61054 5.46619 5.27342 5.46619C5.06359 5.46619 4.81689 5.43131 4.6124 5.47553C4.19105 5.56663 3.81214 5.63436 3.3838 5.63436C3.18854 5.63436 2.77148 5.63557 2.61534 5.76049C2.50164 5.85145 2.59431 6.51672 2.59431 6.65275C2.59431 7.31502 2.46894 7.88318 2.30001 8.51667C2.17075 9.0014 2.13184 9.48588 2.13184 9.98586C2.13184 10.2868 2.33698 10.6919 2.6784 10.7216C2.8705 10.7383 3.04157 10.7983 3.23431 10.8057C3.40173 10.8121 3.62148 10.8449 3.79722 10.8711C4.34009 10.952 4.91483 11.0777 5.46261 11.1C6.08615 11.1255 6.70127 11.1841 7.32888 11.1841C7.87233 11.1841 8.41578 11.1841 8.95923 11.1841C9.37759 11.1841 9.78189 11.1142 10.1948 11.1C10.4684 11.0906 10.6379 11.0493 10.8161 10.8711C11.1067 10.5805 11.1712 9.92258 11.1712 9.51637C11.1712 8.70304 10.3609 8.32389 9.66696 8.13361C8.70394 7.86956 7.62894 7.97318 6.6445 7.88369C6.11966 7.83597 5.59405 7.83554 5.07021 7.78792C4.71361 7.7555 4.6419 7.75524 4.40685 7.48661C4.05602 7.08566 3.99964 7.59958 4.05649 7.92806C4.1786 8.63357 5.32059 9.02764 5.9064 9.20338C6.66273 9.43028 7.47785 9.37623 8.26084 9.37623C8.45782 9.37623 8.6548 9.37623 8.85178 9.37623C9.02697 9.37623 9.16552 9.48755 8.94288 9.37623" stroke="black" stroke-width="3" stroke-linecap="round"/>
<path d="M1.83799 10.7656C1.83799 10.8653 1.84156 11.1002 1.75391 11.144" stroke="black" stroke-width="3" stroke-linecap="round"/>
<path d="M11.003 6.39114C10.9917 6.30051 10.358 6.35911 10.2462 6.32808C10.0156 6.26401 9.78637 6.22732 9.54784 6.20195C9.29054 6.17458 8.86395 6.20686 8.62522 6.0875C8.52411 6.03694 8.88993 5.89648 8.91952 5.88662C9.1335 5.81529 9.33098 5.80253 9.55484 5.80253C9.92527 5.80253 10.271 5.78137 10.6246 5.90764C10.7855 5.96509 10.6718 6.01275 10.5616 6.01275C10.2843 6.01275 10.0054 6.02663 9.73236 5.97071C8.59546 5.73785 7.43992 5.64634 6.29414 5.48721C5.95966 5.44075 5.61054 5.46619 5.27342 5.46619C5.06359 5.46619 4.81689 5.43131 4.6124 5.47553C4.19105 5.56663 3.81214 5.63436 3.3838 5.63436C3.18854 5.63436 2.77148 5.63557 2.61534 5.76049C2.50164 5.85145 2.59431 6.51672 2.59431 6.65275C2.59431 7.31502 2.46894 7.88318 2.30001 8.51667C2.17075 9.0014 2.13184 9.48588 2.13184 9.98586C2.13184 10.2868 2.33698 10.6919 2.6784 10.7216C2.8705 10.7383 3.04157 10.7983 3.23431 10.8057C3.40173 10.8121 3.62148 10.8449 3.79722 10.8711C4.34009 10.952 4.91483 11.0777 5.46261 11.1C6.08615 11.1255 6.70127 11.1841 7.32888 11.1841C7.87233 11.1841 8.41578 11.1841 8.95923 11.1841C9.37759 11.1841 9.78189 11.1142 10.1948 11.1C10.4684 11.0906 10.6379 11.0493 10.8161 10.8711C11.1067 10.5805 11.1712 9.92258 11.1712 9.51637C11.1712 8.70304 10.3609 8.32389 9.66696 8.13361C8.70394 7.86956 7.62894 7.97318 6.6445 7.88369C6.11966 7.83597 5.59405 7.83554 5.07021 7.78792C4.71361 7.7555 4.6419 7.75524 4.40685 7.48661C4.05602 7.08566 3.99964 7.59958 4.05649 7.92806C4.1786 8.63357 5.32059 9.02764 5.9064 9.20338C6.66273 9.43028 7.47785 9.37623 8.26084 9.37623C8.45782 9.37623 8.6548 9.37623 8.85178 9.37623C9.02697 9.37623 9.16552 9.48755 8.94288 9.37623" stroke="black" stroke-width="3" stroke-linecap="round"/>
</svg>
