<svg width="48" height="48" viewBox="0 0 48 48" fill="none" xmlns="http://www.w3.org/2000/svg">
<path fill-rule="evenodd" clip-rule="evenodd" d="M14.809 37.714C21.654 36.714 26.367 36.8 33.221 37.749C33.7174 37.821 34.1709 38.0701 34.4979 38.4504C34.8249 38.8307 35.0033 39.3165 35 39.818C35 40.298 34.835 40.764 34.537 41.128C34.0176 41.7626 33.4855 42.3868 32.941 43H35.582C35.748 42.802 35.915 42.6 36.084 42.395C36.6772 41.6676 37.0008 40.7576 37 39.819C37 37.794 35.522 36.049 33.495 35.769C26.479 34.798 21.575 34.705 14.52 35.736C12.472 36.035 11 37.807 11 39.846C11 40.751 11.295 41.646 11.854 42.371C12.019 42.585 12.182 42.795 12.344 43.001H14.921C14.4144 42.3945 13.9203 41.7777 13.439 41.151C13.153 40.7758 12.9987 40.3168 13 39.845C13 38.768 13.774 37.865 14.809 37.714ZM24 28C24.7879 28 25.5681 27.8448 26.2961 27.5433C27.0241 27.2417 27.6855 26.7998 28.2426 26.2426C28.7998 25.6855 29.2417 25.0241 29.5433 24.2961C29.8448 23.5681 30 22.7879 30 22C30 21.2121 29.8448 20.4319 29.5433 19.7039C29.2417 18.9759 28.7998 18.3145 28.2426 17.7574C27.6855 17.2002 27.0241 16.7583 26.2961 16.4567C25.5681 16.1552 24.7879 16 24 16C22.4087 16 20.8826 16.6321 19.7574 17.7574C18.6321 18.8826 18 20.4087 18 22C18 23.5913 18.6321 25.1174 19.7574 26.2426C20.8826 27.3679 22.4087 28 24 28V28ZM24 30C26.1217 30 28.1566 29.1571 29.6569 27.6569C31.1571 26.1566 32 24.1217 32 22C32 19.8783 31.1571 17.8434 29.6569 16.3431C28.1566 14.8429 26.1217 14 24 14C21.8783 14 19.8434 14.8429 18.3431 16.3431C16.8429 17.8434 16 19.8783 16 22C16 24.1217 16.8429 26.1566 18.3431 27.6569C19.8434 29.1571 21.8783 30 24 30V30Z" fill="black"/>
<path d="M24 45.5C34.2171 45.5 42.5 37.2171 42.5 27C42.5 16.7829 34.2171 8.5 24 8.5C13.7829 8.5 5.5 16.7829 5.5 27C5.5 37.2171 13.7829 45.5 24 45.5ZM43.5 27C43.5 37.7699 34.7699 46.5 24 46.5C13.2301 46.5 4.5 37.7699 4.5 27C4.5 16.2301 13.2301 7.5 24 7.5C34.7699 7.5 43.5 16.2301 43.5 27Z" fill="black" stroke="black"/>
<path d="M24.8921 21.4292C24.8921 22.1018 25.1397 23.2189 24.1612 23.235C22.8911 23.2558 21.6176 22.978 20.6643 22.0455C19.6207 21.0245 20.1892 18.7632 21.4525 18.1617C22.3521 17.7333 22.3638 19.3827 22.2838 19.8528C22.2506 20.0477 21.7992 21.0748 21.6388 20.469C21.5706 20.2113 21.3143 19.1075 21.7965 19.1075C22.1117 19.1075 21.9105 20.5622 21.7965 20.7843C21.614 21.1396 20.1896 22.1902 19.9191 21.5439C19.803 21.2665 20.0675 19.896 19.7041 19.8814C18.8548 19.8474 19.0879 21.118 19.0879 21.6872C19.0879 22.3626 19.3874 22.536 19.7041 23.106C20.1424 23.895 20.7062 24.7243 21.345 25.3632C22.3049 26.3231 20.9313 25.8482 20.5138 25.2915C20.0613 24.6882 19.6038 23.7993 19.6038 23.0272C19.6038 21.6662 19.8336 20.5369 20.3132 19.258C20.7223 18.1671 21.6046 16.7382 22.5775 16.0693C22.9693 15.8 23.1792 15.625 23.6596 15.625C24.2617 15.625 24.4042 15.8918 24.8921 16.2054C25.4103 16.5386 25.856 16.9603 26.3682 17.3018C26.7221 17.5377 27.2709 17.8231 27.5362 18.1473C27.6235 18.254 28.0263 19.032 27.787 19.1004C27.3802 19.2166 26.969 18.2289 26.8985 17.9467C26.8114 17.5984 26.6883 16.9868 27.0203 16.7285C27.4011 16.4323 27.8673 17.4187 28.0593 17.6601C28.6807 18.4412 29.2775 19.3886 29.2775 20.3973C29.2775 20.9563 29.2775 21.5152 29.2775 22.0741C29.2775 22.6779 29.368 23.4504 29.1198 24.0089C28.9048 24.4926 28.3993 24.8537 28.0163 25.1984C27.2848 25.8567 26.6596 26.537 25.7376 26.9468C25.1073 27.2269 24.2517 27.1044 23.5736 27.1044C22.6155 27.1044 22.1711 26.8784 21.99 25.9364C21.7269 24.5688 22.2372 22.9758 22.9215 21.8233C23.2245 21.3129 24.3465 19.3236 25.3435 19.7668C26.0176 20.0664 25.666 22.1155 25.666 22.7835C25.666 23.2776 25.7033 23.9572 25.3363 24.3241C24.4889 25.1716 24.3388 21.8307 24.3116 21.6298C24.1633 20.5324 23.9892 19.3752 23.9892 18.2691C23.9892 17.7776 23.7877 17.7546 24.5194 17.8894C25.607 18.0897 26.9053 18.6232 27.7297 19.3727C28.5494 20.1179 28.5036 20.7429 28.5036 21.7445C28.5036 21.9924 28.2283 22.3111 28.045 22.4682C27.6686 22.7909 27.9039 23.297 27.3427 22.848" stroke="black" stroke-width="3" stroke-linecap="round"/>
<path d="M24.3766 24.0078C24.3385 24.3503 24.0426 24.6212 23.8893 24.9107C23.6428 25.3763 23.5038 25.1793 23.3447 24.7817" stroke="black" stroke-width="3" stroke-linecap="round"/>
<path d="M25.0217 20.9141C25.0217 21.645 25.0217 22.3759 25.0217 23.1068C25.0217 23.7269 25.0715 24.0926 24.6348 23.3647" stroke="black" stroke-width="3" stroke-linecap="round"/>
<path d="M27.4718 24.268C27.4394 24.0089 26.5382 24.1415 26.3683 24.139C24.8514 24.1164 24.8776 22.5424 24.8993 21.3802C24.9086 20.8836 24.6908 19.7221 25.1501 19.9112C25.3555 19.9958 25.3664 20.4855 25.3794 20.6421C25.4453 21.4327 25.2106 22.5167 24.3834 22.8348C23.4722 23.1853 23.6686 21.475 23.8173 21.0291C23.8992 20.7834 24.2654 20.5262 24.5339 20.6421C25.0069 20.8464 25.0211 21.5509 25.0211 21.975C25.0211 22.5202 25.0788 24.9512 23.9176 24.354C23.023 23.8939 22.8718 22.4713 22.3125 21.6883" stroke="black" stroke-width="3" stroke-linecap="round"/>
<path d="M24.7632 21.4297C24.485 21.4645 24.7003 22.2485 24.6056 22.4615C24.3752 22.98 24.3677 23.5421 23.8604 23.8804" stroke="black" stroke-width="3" stroke-linecap="round"/>
<path d="M23.6025 23.7469C24.1393 23.7469 25.6663 22.9148 25.6663 22.3281" stroke="black" stroke-width="3" stroke-linecap="round"/>
<path d="M24.2471 18.8438C24.2471 20.3324 24.3487 21.8531 24.0178 23.3008C23.9259 23.7032 23.9995 24.7093 23.7025 25.0062C23.4699 25.2389 22.38 24.0665 22.2837 23.8741C21.9512 23.2091 21.5941 21.7548 22.1834 21.1654C22.6513 20.6975 23.3216 20.285 23.9175 20.0046C25.0659 19.4642 27.4146 19.4912 27.6007 21.1654C27.7107 22.1558 29.7968 23.2561 28.2456 24.0317C27.5406 24.3842 26.7676 24.6209 26.0242 24.8773C25.5171 25.0521 24.9842 25.2505 24.5338 25.5508C24.1096 25.8336 24.064 26.0634 24.3045 25.6225C25.0704 24.2182 26.4124 23.1497 26.3108 21.4234C26.2886 21.0445 25.587 21.9782 25.537 22.0683C25.1179 22.8227 24.5668 23.6046 24.3045 24.433C24.1543 24.9072 23.9212 25.3142 23.7599 25.7801C23.5888 26.2743 23.5389 26.0692 23.3443 25.6798" stroke="black" stroke-width="3" stroke-linecap="round"/>
<path d="M23.2159 43.9961C22.7213 43.9961 22.234 44.477 21.6681 44.2254C21.1828 44.0097 20.2056 43.7382 19.6689 43.7382C19.1902 43.7382 18.2831 43.391 17.8631 43.1578C17.1182 42.7439 16.3556 42.229 15.606 41.8321C15.0962 41.5622 14.6462 41.2886 14.4165 40.7716C14.1873 40.2561 14.1137 39.0329 14.7747 38.844C16.6263 38.315 18.6294 37.547 20.6291 37.547C22.6417 37.547 24.6375 37.2891 26.6698 37.2891C27.5542 37.2891 28.4084 37.418 29.2781 37.418C29.9444 37.418 30.7393 37.3936 31.3418 37.6473C31.9549 37.9055 32.6568 37.9107 33.2765 38.2206C33.9327 38.5487 34.3396 38.4347 33.9215 39.1665C33.7684 39.4343 33.8461 39.705 33.6635 39.9332C33.4993 40.1384 33.3058 40.2981 33.1189 40.485C32.7136 40.8902 32.3244 41.1804 31.7932 41.4165C30.6936 41.9052 29.4547 42.83 28.2462 42.9643C27.6798 43.0272 27.1187 43.4802 26.5695 43.4802C25.8422 43.4802 25.0818 43.6092 24.3194 43.6092C23.5661 43.6092 22.8416 43.6056 22.1124 43.4731C21.2834 43.3223 20.5389 42.6994 19.7621 42.4197C19.2379 42.231 16.7517 41.1383 18.0566 40.4133C18.3696 40.2394 18.6155 40.2738 18.9595 40.2557C19.9646 40.2028 20.9949 39.7999 21.9978 39.6394C23.2413 39.4404 24.6173 38.9658 25.8744 38.9658C26.989 38.9658 28.1176 38.8369 29.2494 38.8369C29.7643 38.8369 30.2829 38.8178 30.7972 38.8369C31.4949 38.8627 31.0875 39.6441 30.7614 39.8615C30.2522 40.201 29.1825 40.2947 28.5615 40.3775C27.4646 40.5237 26.3903 40.845 25.2796 40.9006C23.9163 40.9687 22.673 41.2875 21.2812 41.2875" stroke="black" stroke-width="3" stroke-linecap="round"/>
<path d="M16.7662 39.6094C16.7418 39.8286 15.8633 40.6556 15.8633 40.1253" stroke="black" stroke-width="3" stroke-linecap="round"/>
<path d="M33.4048 41.8047C33.3175 42.503 31.3634 43.2235 30.8252 43.2235" stroke="black" stroke-width="3" stroke-linecap="round"/>
</svg>
