<svg width="14" height="15" viewBox="0 0 14 15" fill="none" xmlns="http://www.w3.org/2000/svg">
<path d="M7.89727 4.10077V2.85949C7.89726 2.67145 7.86282 2.48545 7.79613 2.31325C7.72943 2.14106 7.63193 1.98641 7.5098 1.85908C7.38766 1.73175 7.24353 1.63452 7.08653 1.57352C6.92953 1.51252 6.76307 1.48908 6.59767 1.50469L1.79767 1.95742C1.4977 1.98573 1.21807 2.14073 1.01425 2.39167C0.81042 2.64262 0.697281 2.97119 0.697266 3.31222V11.6871C0.697281 12.0281 0.81042 12.3567 1.01425 12.6076C1.21807 12.8586 1.4977 13.0136 1.79767 13.0419L6.59767 13.4953C6.76312 13.5109 6.92963 13.4875 7.08667 13.4264C7.24372 13.3654 7.38787 13.2681 7.51002 13.1407C7.63216 13.0133 7.72965 12.8586 7.79631 12.6863C7.86296 12.514 7.89734 12.3279 7.89727 12.1398V10.8986M7.29727 7.49966H12.6973H7.29727ZM12.6973 7.49966L10.6975 4.78055L12.6973 7.49966ZM12.6973 7.49966L10.6975 10.2188L12.6973 7.49966Z" stroke="black" stroke-width="1.2" stroke-linecap="round" stroke-linejoin="round"/>
<path d="M7 7.5C7 9.98528 7.82843 12 7 12C6.17157 12 1.5 9.98528 1.5 7.5C1.5 5.01472 5.67157 2.5 6.5 2.5C8 2.5 7 5.01472 7 7.5Z" fill="black"/>
<path d="M2.97092 3.60156C2.97092 3.78498 2.96141 3.95297 2.936 4.13081C2.92842 4.1839 2.91228 4.29968 2.87904 4.33662C2.86574 4.3514 2.77245 4.51555 2.77245 4.41197C2.77245 4.28558 2.77605 4.16776 2.82207 4.04811C2.83288 4.01999 2.9368 3.69205 3.004 3.78165C3.17424 4.00864 2.56359 4.21259 2.41043 4.14367C2.23697 4.06561 2.27629 3.8219 2.27629 3.66772" stroke="black" stroke-width="2" stroke-linecap="round"/>
<path d="M4.36709 3.23217C4.36709 3.29045 4.36078 3.30224 4.30014 3.30224C4.17922 3.30224 4.22543 3.12052 4.269 3.05311C4.28044 3.03542 4.39017 2.87994 4.40602 2.90987C4.4312 2.95744 4.35755 3.03935 4.33284 3.07024C4.1986 3.23803 3.82026 3.6286 3.58546 3.40812C3.50002 3.32788 3.45874 2.95833 3.50606 3.06557C3.54942 3.16385 3.36812 3.22813 3.30676 3.23996C3.10087 3.27965 2.78298 3.24756 2.62478 3.09515C2.60546 3.07654 2.51222 2.93723 2.60921 2.97215C2.68445 2.99924 2.68951 3.1382 2.68239 3.20103C2.66741 3.33306 2.53298 3.38498 2.41613 3.3941C2.27513 3.40511 2.03371 3.3961 1.97705 3.23061C1.96705 3.20139 1.92712 3.0293 2.01286 3.05311C2.09703 3.07649 2.07302 3.27123 2.04868 3.32715C2.01399 3.40683 1.89057 3.46826 1.80578 3.46417C1.57227 3.45292 1.64516 3.02027 1.9319 3.13719C1.98921 3.16056 2.04459 3.26045 1.98951 3.31314C1.90987 3.38931 1.67969 3.37465 1.59869 3.31314C1.51648 3.2507 1.5217 3.12219 1.60804 3.06713C1.71624 2.99811 1.86975 2.97935 1.99418 2.96748C2.07301 2.95995 2.16525 2.95428 2.21684 3.02664C2.3104 3.1579 2.24609 3.23588 2.10473 3.25397C2.05931 3.25978 2.01528 3.25668 1.98795 3.21504C1.90776 3.09285 2.16341 3.06202 2.21528 3.05311C2.58051 2.99037 3.03044 2.95509 3.38305 3.09827C3.44632 3.12396 3.52829 3.19344 3.45156 3.25397C3.2637 3.40217 2.9025 3.31411 2.71353 3.2275C2.54553 3.1505 2.54076 3.00132 2.72754 2.95502C2.92174 2.90689 3.13842 2.91849 3.33478 2.94412C3.44252 2.95819 3.56763 2.98001 3.64307 3.06713C3.79805 3.24609 3.53867 3.27812 3.40796 3.27265C3.22859 3.26515 2.90859 3.14149 2.90348 2.91921C2.89718 2.64513 3.32062 2.64936 3.50294 2.66386C3.5938 2.67108 3.92583 2.74135 3.82992 2.90831C3.75865 3.03237 3.43046 3.00965 3.31921 2.97526C3.29943 2.96915 3.16202 2.91423 3.18842 2.86783C3.24174 2.77412 3.58846 2.78556 3.65397 2.78219C3.94773 2.7671 4.26988 2.75034 4.55549 2.83669C4.65509 2.8668 4.83392 2.92872 4.88247 3.03599C4.9404 3.16398 4.73981 3.21673 4.65514 3.22283C4.51057 3.23325 4.63003 3.09035 4.68784 3.0609C4.83249 2.98719 5.00562 2.9669 5.16429 2.94724C5.27181 2.93391 5.40732 2.91042 5.51462 2.94412C5.62837 2.97984 5.6427 3.12064 5.53798 3.173C5.46565 3.20917 5.31038 3.23943 5.29041 3.12629C5.2656 2.98569 5.50749 2.94466 5.5987 2.94412C5.63079 2.94393 5.86003 2.95221 5.79333 3.04689C5.74314 3.11813 5.57885 3.12184 5.54732 3.03287C5.49886 2.89614 5.64534 2.76215 5.76842 2.73392C5.81957 2.72219 5.98935 2.73289 5.90077 2.83046C5.83778 2.89983 5.68786 2.89955 5.60493 2.90675C5.43397 2.92159 5.26596 2.91675 5.0989 2.87406C4.96341 2.83943 4.8118 2.79215 4.69874 2.7059C4.67997 2.69158 4.63023 2.65575 4.67538 2.6405C4.79393 2.60047 5.06135 2.64313 5.12537 2.76506C5.19334 2.89454 4.94622 2.87495 4.89337 2.85537C4.74287 2.79963 4.73206 2.70924 4.89493 2.66541C5.18067 2.58853 5.50546 2.57962 5.79489 2.64673C5.88039 2.66656 6.08472 2.74183 6.05958 2.86471C6.04525 2.93478 5.94815 2.90932 5.92256 2.8616C5.87329 2.76971 5.88765 2.62474 5.94281 2.53929C6.06996 2.3423 6.65905 2.51204 6.46285 2.75728C6.41426 2.81802 6.23418 2.87156 6.19193 2.77752C6.14693 2.67736 6.2201 2.57881 6.30248 2.52995C6.43733 2.44998 6.50615 2.64582 6.50801 2.74949C6.50839 2.77099 6.46382 2.86909 6.4613 2.80087C6.45997 2.76504 6.48927 2.73497 6.51424 2.71368C6.60564 2.63577 6.82176 2.5759 6.91751 2.67164" stroke="black" stroke-linecap="round"/>
<path d="M6.86133 2.65625C6.86366 2.67719 6.87812 2.69545 6.88935 2.7123" stroke="black" stroke-linecap="round"/>
<path d="M6.73557 2.23208C6.74955 2.28336 6.82116 2.33712 6.8539 2.37922C6.88816 2.42327 6.91743 2.47094 6.93486 2.52325C6.94457 2.55237 6.93244 2.56948 6.90917 2.53726C6.84904 2.45399 6.81214 2.35929 6.76515 2.26867C6.75761 2.25413 6.72197 2.17536 6.76982 2.2134C6.86898 2.29222 6.95589 2.41095 7.0423 2.50456C7.11871 2.58733 7.19271 2.67803 7.27897 2.75057C7.32565 2.78982 7.37886 2.83665 7.4082 2.8907C7.42844 2.92799 7.48187 3.00543 7.43623 3.04485C7.36047 3.11028 7.21623 3.10168 7.12404 3.10791C6.64735 3.14012 6.15918 3.07142 5.68457 3.0394C5.20231 3.00687 4.72192 2.95496 4.2412 2.90472C3.89861 2.86891 3.53439 2.85863 3.20422 2.75057C3.05269 2.70098 2.95044 2.5875 2.80562 2.53414C2.72058 2.50281 2.56399 2.51618 2.47631 2.52714C2.35971 2.54171 2.40547 2.72584 2.40547 2.80195C2.40547 3.48352 2.40059 4.16158 2.47865 4.8401C2.52249 5.22117 2.51599 5.58008 2.3572 5.93547C2.31988 6.019 2.29916 6.02251 2.23419 5.95649C2.08859 5.80854 2.00544 5.60571 1.91578 5.42243C1.83375 5.25476 1.73469 5.09517 1.65965 4.92418C1.60837 4.80734 1.56472 4.68706 1.51329 4.57074C1.48013 4.49574 1.44564 4.42128 1.4043 4.35042C1.40419 4.35023 1.43148 4.50511 1.44089 4.53804C1.49478 4.72665 1.54877 4.91834 1.58647 5.11103C1.60287 5.19487 1.57208 5.03265 1.56467 5.00671" stroke="black" stroke-linecap="round"/>
<path d="M1.45274 4.53125C1.45274 4.79024 1.45274 5.04922 1.45274 5.30821C1.45274 5.552 1.4359 5.80195 1.4613 6.04468C1.48401 6.26167 1.53696 6.4778 1.57185 6.69319C1.62241 7.00536 1.65133 7.32118 1.68006 7.63597C1.70406 7.89888 1.76212 8.68782 1.76103 8.42382C1.75814 7.72874 1.73144 7.03418 1.733 6.33896C1.7335 6.11929 1.74702 5.89986 1.74702 5.68034" stroke="black" stroke-linecap="round"/>
<path d="M7.05737 11.6237C7.05737 11.7475 7.05737 11.8712 7.05737 11.995C7.05737 12.0817 7.06973 12.1748 7.04025 12.2574C6.98105 12.4231 6.80461 12.5334 6.64554 12.5781C6.47975 12.6248 6.30631 12.6672 6.13328 12.6739C5.95378 12.6808 5.82889 12.6383 5.69575 12.5135C5.42645 12.261 5.33225 11.877 5.37423 11.5162C5.40325 11.2668 5.62812 10.8392 5.9441 10.9401C6.19709 11.0209 6.29323 11.261 6.32012 11.503C6.339 11.6729 6.31409 11.8343 6.11148 11.8378C5.89016 11.8415 5.86442 11.5035 5.95967 11.3636C6.08096 11.1855 6.30998 11.1734 6.40654 11.3745C6.4614 11.4888 6.50095 11.6554 6.44702 11.7763C6.34545 12.0039 6.04782 12.0432 5.91919 11.8214C5.78219 11.5852 5.72174 11.2572 5.77827 10.9892C5.7837 10.9635 5.84783 10.7099 5.9223 10.7642C5.98697 10.8113 5.98566 10.9525 5.97991 11.0195C5.96329 11.2132 5.86974 11.3945 5.74013 11.5365C5.50201 11.7974 5.11113 11.8707 4.77166 11.8712C4.37694 11.8718 4.01541 11.6785 3.78372 11.3598C3.6352 11.1554 3.45022 10.7902 3.52136 10.526C3.59087 10.2678 3.98834 10.2275 4.19088 10.3204C4.30885 10.3746 4.4591 10.5033 4.54589 10.5882C4.7526 10.7906 4.94485 11.0233 5.09007 11.2741C5.20881 11.4792 5.27113 11.7206 5.29637 11.9553C5.30489 12.0345 5.32704 12.1736 5.22475 12.2076C4.98545 12.2869 4.73628 12.0379 4.60272 11.8782C4.35077 11.5771 4.22587 11.1902 4.17687 10.8047C4.15374 10.6227 4.18038 10.4868 4.38785 10.4972C4.61493 10.5085 4.80883 10.6505 4.95071 10.8187C5.09841 10.9938 5.25372 11.2226 5.27925 11.4571C5.32949 11.9184 4.68423 11.6673 4.4984 11.5084C4.37809 11.4056 4.08917 10.8956 4.42444 10.8654C4.68731 10.8417 4.998 11.0758 5.1796 11.2399C5.31094 11.3585 5.42934 11.5293 5.47855 11.7015C5.56701 12.0111 5.24764 12.1319 4.99898 12.1235C4.88485 12.1196 4.72777 12.0888 4.67356 11.9709C4.6097 11.832 4.7877 11.7046 4.89388 11.661C5.13101 11.5638 5.4556 11.6303 5.53149 11.9024C5.61244 12.1927 5.50828 12.5787 5.21074 12.7074C5.03336 12.7841 4.78908 12.7742 4.79345 12.5314C4.79532 12.4276 4.89852 12.3549 4.9912 12.4193C4.99863 12.4245 5.01825 12.4398 5.00521 12.4504C4.93343 12.5092 4.73776 12.4255 4.67745 12.4045C4.34536 12.2888 4.0594 12.0889 3.79384 11.8619C3.49106 11.6031 3.21177 11.3353 3.03323 10.9752C2.81512 10.5352 2.80182 10.091 2.7553 9.61198C2.73099 9.36168 2.66412 9.12029 2.56846 8.88797C2.56236 8.87315 2.55857 8.8566 2.54822 8.84437C2.54453 8.84001 2.54699 8.85592 2.54822 8.8615C2.62046 9.19019 2.73255 9.51256 2.82381 9.8362C2.96587 10.34 3.0881 10.8477 3.19283 11.3605C3.20023 11.3968 3.39363 12.2342 3.33919 12.2465C3.26507 12.2632 3.22118 12.1471 3.18037 12.083C2.94506 11.7134 2.79609 11.2892 2.67278 10.8716C2.48892 10.2489 2.36786 9.60762 2.37383 8.95725C2.37504 8.82511 2.37839 8.68974 2.39251 8.55788C2.39778 8.50868 2.40554 8.41283 2.4439 8.36948C2.4574 8.35421 2.47425 8.36754 2.48127 8.38037C2.55585 8.51672 2.58815 8.71121 2.62373 8.85605C2.70687 9.19444 2.77538 9.5357 2.81447 9.88213C2.84187 10.1249 2.8714 10.3894 2.82225 10.6318C2.78011 10.8398 2.55747 10.6594 2.45791 10.5921C2.1018 10.3516 1.78355 10.0262 1.55016 9.66492C1.35913 9.36921 1.23752 9.02725 1.15935 8.68555C1.13864 8.59505 1.0544 8.25973 1.23253 8.23479C1.31477 8.22328 1.39657 8.25865 1.46686 8.29474C1.67572 8.40196 1.81366 8.57747 1.92852 8.77897C2.15802 9.18161 2.36667 9.67967 2.37461 10.1507C2.37553 10.2052 2.37226 10.3869 2.26406 10.3251C2.18898 10.2822 2.12009 10.2001 2.06865 10.1375C1.92753 9.9658 1.80429 9.77298 1.72299 9.56527C1.63169 9.332 1.30425 7.73816 2.0126 8.10011C2.09197 8.14066 2.19988 8.24953 2.23993 8.32588C2.44542 8.71771 2.47854 9.24539 2.5163 9.67115C2.52542 9.77395 2.59877 10.3938 2.49061 10.5789C2.46412 10.6242 2.38845 10.6324 2.33802 10.6178C2.26694 10.5973 1.94382 10.34 1.89271 10.2986C1.71198 10.1524 1.79351 10.2106 1.66538 10.1024C1.64318 10.0837 1.63424 10.0761 1.63424 10.1048C1.63424 10.1455 1.63501 10.1863 1.63424 10.227C1.63132 10.3819 1.57313 10.5256 1.56417 10.6801C1.55575 10.8255 1.53911 10.9731 1.55795 11.1184C1.59049 11.3694 1.87604 11.4893 2.07955 11.5816C2.35491 11.7065 2.624 11.8309 2.92268 11.8891C3.10789 11.9253 3.29321 11.9632 3.47932 11.9942C3.61208 12.0164 3.78979 12.0383 3.90128 12.1219C4.02418 12.2141 3.83953 12.3082 3.76114 12.3352C3.71275 12.3519 3.63852 12.3359 3.59143 12.3306C3.08196 12.273 2.55935 12.1959 2.06165 12.0736C1.72333 11.9906 1.2841 11.893 1.03167 11.6283C0.938907 11.5311 0.908288 11.4662 0.905551 11.3403C0.903875 11.2632 0.871116 11.1936 0.880639 11.1145C0.895091 10.9946 0.957114 11.0059 1.0597 10.9931" stroke="black" stroke-linecap="round"/>
<line x1="7.5" y1="11" x2="7.5" y2="4" stroke="black"/>
</svg>
