<svg width="13" height="13" viewBox="0 0 13 13" fill="none" xmlns="http://www.w3.org/2000/svg">
<path d="M12.2237 9.00725H4.25807L4.65803 8.10134L11.3034 8.08795C11.5282 8.08795 11.7208 7.90945 11.7609 7.66251L12.6812 1.93399C12.7053 1.78375 12.6692 1.62904 12.5809 1.51153C12.5373 1.45369 12.4828 1.40711 12.4214 1.375C12.36 1.34289 12.293 1.32603 12.2251 1.32559L3.77117 1.29435L3.69894 0.916512C3.65346 0.67553 3.45816 0.5 3.23611 0.5H1.16945C1.04422 0.5 0.924119 0.555323 0.835566 0.653799C0.747014 0.752275 0.697266 0.885837 0.697266 1.0251C0.697266 1.16437 0.747014 1.29793 0.835566 1.39641C0.924119 1.49488 1.04422 1.5502 1.16945 1.5502H2.85355L3.16923 3.21923L3.9464 7.40368L2.94584 9.21997C2.89388 9.29796 2.86259 9.39056 2.8555 9.48731C2.8484 9.58405 2.8658 9.68107 2.90572 9.76739C2.98597 9.9444 3.14783 10.056 3.32707 10.056H4.16711C3.98803 10.3205 3.8913 10.6427 3.89156 10.9738C3.89156 11.8157 4.50687 12.5 5.26398 12.5C6.02109 12.5 6.6364 11.8157 6.6364 10.9738C6.6364 10.6421 6.53742 10.3193 6.36085 10.056H8.51579C8.33671 10.3205 8.23998 10.6427 8.24024 10.9738C8.24024 11.8157 8.85555 12.5 9.61266 12.5C10.3698 12.5 10.9851 11.8157 10.9851 10.9738C10.9851 10.6421 10.8861 10.3193 10.7095 10.056H12.2251C12.4846 10.056 12.6973 9.82094 12.6973 9.53087C12.6965 9.39175 12.6463 9.25861 12.5576 9.16052C12.4688 9.06242 12.3488 9.00733 12.2237 9.00725ZM3.9678 2.32968L11.67 2.35794L10.9155 7.0556L4.86536 7.0675L3.9678 2.32968ZM5.26398 11.4438C5.03123 11.4438 4.84129 11.2326 4.84129 10.9738C4.84129 10.7149 5.03123 10.5037 5.26398 10.5037C5.49673 10.5037 5.68668 10.7149 5.68668 10.9738C5.68668 11.0985 5.64214 11.218 5.56287 11.3062C5.4836 11.3943 5.37609 11.4438 5.26398 11.4438ZM9.61266 11.4438C9.37991 11.4438 9.18996 11.2326 9.18996 10.9738C9.18996 10.7149 9.37991 10.5037 9.61266 10.5037C9.84541 10.5037 10.0354 10.7149 10.0354 10.9738C10.0354 11.0985 9.99082 11.218 9.91155 11.3062C9.83228 11.3943 9.72477 11.4438 9.61266 11.4438Z" fill="black"/>
<path d="M9.21344 4.11078C9.21344 4.42002 9.21344 4.72926 9.21344 5.03849C9.21344 5.07304 9.2429 5.39126 9.14289 5.26817C8.90667 4.97744 8.81522 4.64008 8.9012 4.2729C8.99516 3.87167 9.40305 3.56003 9.79739 3.81805C9.98814 3.94286 10.1578 4.15099 10.2132 4.37498C10.341 4.89115 9.27662 4.51487 9.14439 4.45304C8.76851 4.27729 8.39164 3.99282 8.09658 3.70246C7.89723 3.50629 7.69748 3.26154 7.67176 2.9729C7.63185 2.52503 8.02404 2.50566 8.3818 2.54808C8.78098 2.5954 9.1103 2.73462 9.35756 3.05697C9.49325 3.23387 9.64824 3.5012 9.5497 3.72949C9.47907 3.89313 9.34192 4.03135 9.1609 4.05223C9.07655 4.06197 8.89688 4.08402 8.85317 3.98468C8.7019 3.6409 9.55377 3.68714 9.72084 3.77152C9.78986 3.80638 9.91895 3.87977 9.89497 3.97567C9.84086 4.19212 9.29876 4.13147 9.16841 4.12729C8.83 4.11643 8.49505 4.06184 8.22268 3.84658C8.07844 3.73257 8.03408 3.56007 8.22268 3.46228C8.33655 3.40324 9.53728 3.22829 9.38157 3.55385C9.25728 3.81374 8.56741 3.54938 8.52892 3.32117C8.46335 2.93242 9.46195 2.95593 9.66529 2.98341C9.72357 2.99129 9.97278 3.05463 9.931 3.16505C9.89834 3.25137 9.69403 3.22109 9.63077 3.21309C9.55228 3.20316 9.43525 3.16098 9.42661 3.06597C9.40881 2.87024 9.69943 2.82444 9.83342 2.81678C9.90499 2.81269 10.515 2.82214 10.2763 3.04946C10.2526 3.07198 10.1411 3.1098 10.1111 3.07798C10.0655 3.02954 10.1947 2.96894 10.2537 2.93838C10.4069 2.85918 10.5798 2.82565 10.7506 2.85881C11.0807 2.92288 10.6403 3.17456 10.4864 2.96089C10.4212 2.87026 10.4471 2.75776 10.4444 2.75974C10.2412 2.91026 9.80143 2.94315 9.55721 2.87983C9.42999 2.84685 9.53449 2.71096 9.61876 2.7057C9.75668 2.69708 9.33752 2.72795 9.20444 2.69069C9.16401 2.67936 9.11024 2.6447 9.1504 2.59761C9.24031 2.4922 9.50857 2.48558 9.63077 2.46851C10.2516 2.38181 10.8918 2.44504 11.4922 2.61112C11.5517 2.62757 11.6351 2.68884 11.6934 2.69369C11.7005 2.69428 11.7027 2.61146 11.7054 2.60362C11.7595 2.44725 11.7756 2.64889 11.7654 2.7072C11.7318 2.89941 11.6606 3.09943 11.5853 3.27914C11.3552 3.82769 11.1399 4.38112 10.9578 4.94842C10.7985 5.44483 10.652 5.93248 10.554 6.44508C10.5248 6.59767 10.4827 6.89145 10.4024 6.59669" stroke="black" stroke-linecap="round"/>
<path d="M10.8608 5.59241C10.8608 5.91666 10.8608 6.24091 10.8608 6.56516C10.8608 6.6324 10.8611 6.67931 10.8338 6.7408C10.7599 6.90719 10.5782 6.64508 10.5456 6.56817C10.2193 5.79902 10.0068 4.95573 10.2934 4.1513C10.2964 4.14295 10.552 3.57771 10.5621 3.70846C10.5816 3.9626 10.4568 4.22503 10.3294 4.43652C10.1879 4.67149 10.027 4.49516 10.0562 4.29091C10.0725 4.17672 10.13 3.97678 10.2634 3.94715C10.3762 3.92208 10.3904 4.16309 10.3955 4.22636C10.4286 4.6407 10.3425 5.07725 10.2153 5.46932C10.1997 5.51757 10.151 5.71974 10.0592 5.71851C10.0024 5.71775 9.90606 5.59759 9.95413 5.54438C10.1423 5.33602 10.3451 6.11248 10.3474 6.19288C10.352 6.34841 10.3623 6.49228 10.2934 6.63422C10.1794 6.86888 10.0667 7.00759 9.79201 7.05154C9.16802 7.15138 8.51684 7.02452 7.88854 7.02452C7.28708 7.02452 6.68561 7.02452 6.08415 7.02452C5.86013 7.02452 5.45658 7.02443 5.28103 6.84888C5.21341 6.78126 5.1215 6.7434 5.05135 6.67325C4.93785 6.55974 4.87335 6.38328 4.80216 6.24091C4.53095 5.69849 4.54162 5.00901 4.47791 4.42151C4.42749 3.95655 4.40175 3.48838 4.35031 3.02544C4.33596 2.89623 4.32179 2.7638 4.32179 2.63364C4.32179 2.54358 4.26442 2.53906 4.40886 2.53906C4.81147 2.53906 5.20144 2.63543 5.59477 2.70719C5.93522 2.7693 6.27646 2.80374 6.62156 2.83029C6.89716 2.85149 7.18318 2.88712 7.45921 2.89033C7.88935 2.89533 7.29583 2.91735 7.17399 2.91735C6.77625 2.91735 6.37963 2.90705 5.98207 2.89634C5.71975 2.88927 5.40419 2.92857 5.15043 2.83629C4.92032 2.75262 5.63814 2.78293 5.88299 2.78225C6.63866 2.78014 7.39264 2.78124 8.14674 2.83479C8.30525 2.84605 8.78151 2.86331 8.6226 2.86331C8.29172 2.86331 7.96014 2.86715 7.63034 2.83629C7.59665 2.83314 7.20311 2.82441 7.23404 2.75373C7.27693 2.65568 7.5014 2.6299 7.59131 2.59911C7.62011 2.58925 7.81388 2.56608 7.7084 2.56608C7.29736 2.56608 6.89558 2.59479 6.48946 2.66516C5.87849 2.77102 5.27052 2.94999 5.27052 3.66643C5.27052 4.14807 5.59258 4.67431 5.889 5.03398C5.99277 5.1599 6.26484 5.49414 6.46394 5.47682C6.59769 5.4652 6.06467 4.88344 6.05413 4.87186C5.72445 4.50959 5.39424 4.14512 5.05736 3.78953C4.91908 3.64357 4.9673 3.75676 5.00182 3.89311C5.10808 4.31285 5.20928 4.73242 5.29454 5.15708C5.30458 5.2071 5.38993 5.72778 5.35609 5.68398C5.21708 5.50409 5.15755 5.22589 5.13842 5.00396C5.13633 4.9797 5.12404 4.65195 5.17595 4.75177C5.23411 4.86362 5.27484 4.9949 5.31556 5.11204C5.40897 5.38081 5.54244 5.67711 5.57976 5.9617C5.59905 6.10881 5.42547 5.70566 5.37711 5.56539C5.35712 5.50743 5.25717 5.18261 5.36059 5.39426C5.49699 5.67339 5.67136 5.95611 5.87999 6.18687C5.92433 6.23592 6.17649 6.56585 6.22376 6.38202C6.29172 6.1177 6.11117 5.83403 6.01209 5.60442C5.75562 5.01006 5.49514 4.36559 5.38161 3.72498C5.37058 3.66273 5.34708 3.55798 5.3756 3.4938C5.4165 3.40178 5.4746 3.67 5.51071 3.76401C5.71453 4.29469 5.93139 4.8238 6.11267 5.36274C6.14052 5.44553 6.24294 5.88464 6.16821 5.53837C6.07069 5.08644 6.01506 4.60405 6.07064 4.1423C6.07746 4.08562 6.15447 3.59522 6.28681 3.77451C6.39876 3.9262 6.4802 4.11953 6.56752 4.28341C6.79617 4.71251 7.02476 5.14179 7.25805 5.5684C7.35447 5.74469 7.44912 5.92467 7.56279 6.0908C7.63884 6.20195 7.63373 6.13364 7.60782 6.04426C7.4716 5.57429 7.2056 5.14457 7.03588 4.68572C6.95656 4.47126 6.89326 4.25251 6.84223 4.02971C6.82478 3.95351 6.76569 3.77594 6.78069 3.68595C6.79421 3.60478 6.88816 3.81113 6.9338 3.87959C7.15391 4.20976 7.36072 4.54844 7.56279 4.88987C7.84825 5.37221 8.17517 5.87413 8.3629 6.40604C8.49514 6.78072 7.90089 5.75497 7.72792 5.39726C7.47591 4.87613 7.29633 4.28764 7.24905 3.70846C7.24876 3.70499 7.22611 3.51249 7.28507 3.50881C7.48727 3.49617 7.84279 3.91904 7.95759 4.03421C8.32533 4.40314 8.63043 4.84051 8.83727 5.3192C9.03372 5.77385 8.54682 4.99604 8.53404 4.97394C8.20021 4.39647 7.82865 3.75187 7.77445 3.07047C7.73499 2.5744 8.23905 3.34667 8.28184 3.40973C8.69925 4.02486 9.09024 4.67402 9.32064 5.38525C9.34821 5.47035 9.32064 5.55318 9.32064 5.45131C9.32064 5.37874 9.329 5.26288 9.42873 5.27417C9.63247 5.29723 9.73418 5.5699 9.79951 5.73052C9.8444 5.84086 9.89881 6.03452 9.85505 6.15385C9.84341 6.18561 9.73607 6.20914 9.72746 6.17036C9.6897 6.00047 9.9514 6.20612 9.67642 6.2214C9.55929 6.22791 8.60293 6.23732 8.65113 6.03075C8.68309 5.89378 8.87039 5.98369 8.92734 6.02925C9.01505 6.09942 9.11899 6.20046 9.12699 6.32047C9.14087 6.52855 8.50168 6.54624 8.37491 6.55916C8.12722 6.5844 7.87761 6.58918 7.62884 6.58918C7.44979 6.58918 7.17438 6.62312 7.00436 6.53364C6.91694 6.48763 6.84896 6.349 6.99385 6.349C7.04221 6.349 7.24544 6.37228 7.20551 6.47209C7.14929 6.61264 6.90876 6.58156 6.8047 6.54715C6.65305 6.497 6.42276 6.38701 6.51048 6.18387C6.54594 6.10176 6.62796 6.02583 6.70263 5.97971C6.82795 5.90231 6.87172 5.9887 6.96983 6.05177" stroke="black" stroke-linecap="round"/>
</svg>
