<svg width="19" height="19" viewBox="0 0 19 19" fill="none" xmlns="http://www.w3.org/2000/svg">
<g clip-path="url(#clip0_811_6)">
<path d="M9.128 0C6.648 0 6.338 0.011 5.365 0.055C4.60774 0.0706271 3.85854 0.213974 3.149 0.479C2.53976 0.708087 1.98791 1.06746 1.532 1.532C1.06706 1.98758 0.707623 2.53953 0.479 3.149C0.213622 3.85845 0.0702631 4.6077 0.055 5.365C0.009 6.338 0 6.648 0 9.128C0 11.608 0.011 11.917 0.055 12.891C0.0707225 13.6483 0.214067 14.3974 0.479 15.107C0.70826 15.7161 1.06761 16.268 1.532 16.724C1.98776 17.1887 2.53966 17.5481 3.149 17.777C3.85859 18.0419 4.60775 18.1852 5.365 18.201C6.339 18.247 6.648 18.256 9.128 18.256C11.608 18.256 11.917 18.245 12.891 18.201C13.6482 18.1849 14.3973 18.0416 15.107 17.777C15.7136 17.5426 16.2644 17.184 16.7242 16.7242C17.184 16.2644 17.5426 15.7136 17.777 15.107C18.0417 14.3971 18.1847 13.6475 18.2 12.89C18.246 11.916 18.255 11.607 18.255 9.127C18.255 6.647 18.244 6.338 18.2 5.364C18.184 4.60678 18.0407 3.85765 17.776 3.148C17.5466 2.53891 17.1873 1.98711 16.723 1.531C16.2675 1.06624 15.7155 0.707126 15.106 0.479C14.3965 0.213696 13.6473 0.0703399 12.89 0.055C11.917 0.009 11.607 0 9.128 0ZM9.128 1.643C11.564 1.643 11.855 1.655 12.817 1.697C13.3956 1.70408 13.9687 1.81099 14.511 2.013C14.9055 2.16349 15.2637 2.39556 15.5624 2.69402C15.861 2.99248 16.0933 3.35061 16.244 3.745C16.4451 4.28745 16.5514 4.86049 16.558 5.439C16.601 6.402 16.611 6.691 16.611 9.128C16.611 11.565 16.6 11.855 16.555 12.817C16.5445 13.3957 16.4363 13.9684 16.235 14.511C16.0864 14.907 15.8529 15.2657 15.551 15.562C15.2559 15.8644 14.8973 16.0974 14.501 16.244C13.9565 16.4451 13.3815 16.5513 12.801 16.558C11.832 16.601 11.547 16.611 9.101 16.611C6.655 16.611 6.373 16.6 5.401 16.555C4.82039 16.5445 4.2457 16.4363 3.701 16.235C3.3046 16.0883 2.94614 15.8546 2.652 15.551C2.34648 15.2579 2.11215 14.8987 1.967 14.501C1.76614 13.9562 1.6583 13.3815 1.648 12.801C1.614 11.843 1.602 11.547 1.602 9.117C1.602 6.687 1.614 6.389 1.648 5.417C1.65819 4.83645 1.76603 4.26175 1.967 3.717C2.10999 3.3182 2.34462 2.95855 2.652 2.667C2.94334 2.3603 3.30266 2.12635 3.701 1.984C4.24486 1.78118 4.8196 1.67361 5.4 1.666C6.37 1.632 6.655 1.62 9.1 1.62L9.134 1.643H9.128ZM9.128 4.443C8.201 4.443 7.29482 4.71789 6.52404 5.2329C5.75327 5.74792 5.15252 6.47993 4.79778 7.33636C4.44303 8.1928 4.35021 9.1352 4.53106 10.0444C4.71191 10.9536 5.1583 11.7887 5.81379 12.4442C6.46928 13.0997 7.30442 13.5461 8.21361 13.7269C9.1228 13.9078 10.0652 13.815 10.9216 13.4602C11.7781 13.1055 12.5101 12.5047 13.0251 11.734C13.5401 10.9632 13.815 10.057 13.815 9.13C13.8153 8.51433 13.6942 7.90463 13.4588 7.33575C13.2234 6.76686 12.8782 6.24994 12.4429 5.8145C12.0077 5.37906 11.4909 5.03364 10.9221 4.79797C10.3533 4.5623 9.74367 4.441 9.128 4.441V4.443ZM9.128 12.173C8.52619 12.1732 7.93784 11.9949 7.43734 11.6608C6.93683 11.3266 6.54664 10.8516 6.31611 10.2957C6.08558 9.73976 6.02506 9.12798 6.1422 8.53769C6.25934 7.94739 6.54888 7.40509 6.97421 6.97933C7.39955 6.55358 7.94157 6.26351 8.53175 6.14579C9.12193 6.02807 9.73376 6.08798 10.2899 6.31797C10.846 6.54795 11.3215 6.93766 11.6561 7.43784C11.9908 7.93802 12.1696 8.52619 12.17 9.128C12.17 9.93479 11.8495 10.7085 11.279 11.279C10.7085 11.8495 9.93479 12.17 9.128 12.17V12.173ZM15.1 4.256C15.101 4.47377 15.0373 4.68693 14.9171 4.86848C14.7968 5.05003 14.6253 5.1918 14.4244 5.27583C14.2235 5.35985 14.0022 5.38235 13.7885 5.34047C13.5748 5.29859 13.3783 5.19422 13.224 5.04059C13.0696 4.88695 12.9644 4.69096 12.9215 4.47745C12.8787 4.26393 12.9002 4.0425 12.9833 3.84121C13.0664 3.63992 13.2074 3.46783 13.3884 3.34674C13.5694 3.22564 13.7822 3.161 14 3.161C14.2909 3.161 14.5699 3.2762 14.7761 3.48141C14.9822 3.68662 15.0987 3.96513 15.1 4.256V4.256Z" fill="white"/>
</g>
<defs>
<clipPath id="clip0_811_6">
<rect width="18.255" height="18.255" fill="white"/>
</clipPath>
</defs>
</svg>
