<svg width="42" height="42" viewBox="0 0 42 42" fill="none" xmlns="http://www.w3.org/2000/svg">
<g clip-path="url(#clip0_812_2)">
<path d="M0 0V41.84H41.84V0H0ZM39.515 39.515H2.324V2.324H39.515V39.515Z" fill="white"/>
<path d="M30.0629 34.5606L27.6869 26.8126H27.6349L25.1559 34.5606H22.1079L26.5499 23.3516H28.7189L33.1079 34.5606H30.0629Z" fill="white"/>
<path d="M11.5709 34.5606V25.8826H8.47095V23.3516H17.4589V25.8826H14.3589V34.5606H11.5709Z" fill="white"/>
<path d="M27.6351 7.07957C26.7355 7.06301 25.8449 7.26046 25.0366 7.65565C24.2283 8.05084 23.5255 8.63246 22.9861 9.35257C22.6853 9.72804 22.4417 10.1459 22.2631 10.5926C21.9967 11.3567 21.8571 12.1593 21.8501 12.9686C21.8517 13.7206 22.0036 14.4647 22.2969 15.1572C22.5901 15.8497 23.0188 16.4766 23.5577 17.0011C24.0967 17.5256 24.735 17.9371 25.4352 18.2114C26.1354 18.4857 26.8833 18.6174 27.6351 18.5986H27.8931C29.4199 18.5487 30.8647 17.8954 31.9105 16.7819C32.9563 15.6683 33.5179 14.1855 33.4721 12.6586C33.4377 11.1448 32.8035 9.70659 31.7089 8.66035C30.6143 7.61412 29.1489 7.0455 27.6351 7.07957V7.07957ZM27.6871 16.1186C27.2645 16.1042 26.8491 16.0051 26.4655 15.8274C26.0818 15.6496 25.7378 15.3967 25.4536 15.0836C25.1694 14.7705 24.9509 14.4036 24.811 14.0046C24.6711 13.6056 24.6126 13.1826 24.6391 12.7606C24.6056 12.3444 24.6592 11.9258 24.7963 11.5314C24.9335 11.137 25.1512 10.7755 25.4357 10.4699C25.7202 10.1643 26.0652 9.92125 26.4487 9.75625C26.8323 9.59126 27.246 9.50792 27.6635 9.51154C28.081 9.51516 28.4932 9.60567 28.8739 9.7773C29.2545 9.94893 29.5952 10.1979 29.8744 10.5084C30.1535 10.8189 30.365 11.1842 30.4952 11.5809C30.6255 11.9776 30.6718 12.397 30.6311 12.8126C30.6548 13.2228 30.5974 13.6337 30.4622 14.0218C30.3271 14.4099 30.1168 14.7675 29.8434 15.0743C29.5701 15.3812 29.2389 15.6311 28.8689 15.8099C28.4989 15.9888 28.0974 16.093 27.6871 16.1166V16.1186Z" fill="white"/>
<path d="M14.2569 18.4434L11.2569 13.6434H11.2049V18.4434H8.36792V7.23438H11.2089V12.2964H11.2609L14.3599 7.23438H17.3039L13.6369 12.8134L17.5109 18.4434H14.2569Z" fill="white"/>
</g>
<defs>
<clipPath id="clip0_812_2">
<rect width="41.84" height="41.84" fill="white"/>
</clipPath>
</defs>
</svg>
