<svg xmlns="http://www.w3.org/2000/svg" width="22.005" height="20.933" viewBox="0 0 22.005 20.933" class="">
  <path id="Path_302" data-name="Path 302" d="M-980.719-188.906l.214-.417a5.078,5.078,0,0,1,3.092-2.646,4.982,4.982,0,0,1,3.686.237,5.11,5.11,0,0,1,2.37,2.2,5.09,5.09,0,0,1,.643,2.6,7.282,7.282,0,0,1-1.758,4.588,19.588,19.588,0,0,1-2.046,2.111c-1,.908-2.008,1.8-2.994,2.718a21.813,21.813,0,0,0-3.147,3.589c-.017.024-.035.047-.06.081a.593.593,0,0,1-.045-.049,24.231,24.231,0,0,0-3.478-3.815c-.966-.877-1.952-1.732-2.916-2.611a14.379,14.379,0,0,1-2.256-2.493,7.266,7.266,0,0,1-1.268-3.435,5.524,5.524,0,0,1,.341-2.733,5.081,5.081,0,0,1,2.506-2.685,5,5,0,0,1,4.416-.069,5.027,5.027,0,0,1,2.41,2.266C-980.914-189.294-980.825-189.112-980.719-188.906Z" transform="translate(991.719 193.224)" fill="none" stroke="#fff" stroke-width="2"/>
</svg>