<svg width="23" height="21" viewBox="0 0 23 21" fill="none" xmlns="http://www.w3.org/2000/svg">
<path d="M11.0003 4.31693L11.2143 3.89993C11.5193 3.26951 11.9515 2.70899 12.4836 2.25363C13.0157 1.79827 13.6362 1.45792 14.3062 1.25394C15.5199 0.857733 16.8394 0.942569 17.9923 1.49094C18.9996 1.94838 19.8312 2.72038 20.3623 3.69093C20.8049 4.48466 21.0269 5.3824 21.0053 6.29092C20.9685 7.97774 20.3471 9.59945 19.2473 10.8789C18.6191 11.6329 17.9352 12.3385 17.2013 12.9899C16.2013 13.8979 15.1932 14.7899 14.2072 15.7079C13.0301 16.7855 11.9748 17.9891 11.0603 19.2969C11.0433 19.3209 11.0253 19.3439 11.0003 19.3779C10.9844 19.3625 10.9694 19.3461 10.9553 19.3289C9.93511 17.937 8.76913 16.6581 7.47726 15.5139C6.51126 14.6369 5.52524 13.7819 4.56124 12.9029C3.71434 12.163 2.95718 11.3263 2.30526 10.4099C1.59629 9.39194 1.15976 8.2094 1.03725 6.97493C0.918348 6.04975 1.03566 5.10953 1.37826 4.24193C1.84958 3.06577 2.74334 2.10815 3.88424 1.55693C4.56588 1.20805 5.3186 1.02039 6.08425 1.00842C6.8499 0.99646 7.60804 1.16051 8.30025 1.48793C9.33622 1.94975 10.1856 2.74835 10.7103 3.75394C10.8053 3.92894 10.8943 4.11093 11.0003 4.31693Z" stroke="black" stroke-width="2"/>
</svg>
