<svg width="948" height="378" viewBox="0 0 948 378" fill="none" xmlns="http://www.w3.org/2000/svg">
<g clip-path="url(#clip0_810_2)">
<path d="M242.918 257.046C239.521 254.138 235.155 252.611 230.686 252.769C227.591 252.711 224.524 253.374 221.729 254.705C220.531 255.211 219.514 256.068 218.815 257.165C218.115 258.261 217.765 259.544 217.811 260.844C217.763 261.663 217.908 262.482 218.233 263.236C218.558 263.989 219.056 264.656 219.685 265.183C220.902 266.185 222.436 266.722 224.012 266.698C225.702 266.738 227.347 266.156 228.636 265.063C229.248 264.572 229.74 263.948 230.075 263.239C230.409 262.53 230.578 261.753 230.567 260.969C230.546 259.877 230.244 258.81 229.69 257.869C229.158 256.868 228.316 256.067 227.29 255.585C227.678 254.879 228.851 254.532 230.798 254.532C234.296 254.469 237.695 255.7 240.342 257.988C241.605 258.985 242.625 260.256 243.324 261.705C244.024 263.155 244.384 264.744 244.379 266.353C244.376 268.545 243.586 270.662 242.153 272.321C240.672 274.121 238.059 275.877 234.312 277.588C231.528 278.841 228.676 279.938 225.77 280.874C222.644 281.882 218.741 283.051 214.062 284.382L205.748 286.842C200.367 288.715 196.328 291.037 193.631 293.806C192.314 295.137 191.278 296.719 190.585 298.459C189.891 300.198 189.554 302.059 189.593 303.931C189.593 308.458 191.057 311.872 193.984 314.175C196.861 316.461 200.44 317.682 204.114 317.632C207.505 317.665 210.836 316.731 213.714 314.938C215.038 314.217 216.141 313.149 216.904 311.849C217.667 310.549 218.063 309.065 218.048 307.558C218.081 306.722 217.947 305.888 217.655 305.104C217.364 304.32 216.919 303.602 216.348 302.991C215.759 302.401 215.054 301.941 214.278 301.639C213.501 301.337 212.67 301.2 211.838 301.237C210.144 301.173 208.489 301.76 207.214 302.877C206.606 303.442 206.128 304.132 205.814 304.9C205.501 305.669 205.358 306.496 205.397 307.325C205.345 308.087 205.466 308.85 205.75 309.559C206.034 310.268 206.474 310.903 207.037 311.419C208.142 312.364 209.472 313.008 210.898 313.289C210.665 314.07 209.771 314.702 208.21 315.169C206.809 315.61 205.352 315.846 203.883 315.869C201.224 315.842 198.649 314.935 196.56 313.289C195.471 312.53 194.586 311.514 193.984 310.331C193.382 309.148 193.082 307.834 193.109 306.507C193.093 305.384 193.326 304.272 193.791 303.25C194.256 302.228 194.942 301.321 195.798 300.595C198.06 298.728 200.639 297.282 203.411 296.324C206.298 295.231 210.785 293.746 216.873 291.871C221.479 293.671 224.601 296.169 226.24 299.365C227.806 302.283 228.648 305.535 228.694 308.846C228.748 312.995 227.27 317.018 224.543 320.146C221.5 323.566 217.63 326.147 213.302 327.64C208.367 329.431 203.151 330.322 197.902 330.271C192.411 330.356 186.959 329.341 181.866 327.287C177.369 325.505 173.47 322.481 170.625 318.569C168.295 315.274 166.912 311.404 166.625 307.379C166.562 306.599 166.525 305.802 166.525 304.987C166.525 295.233 171.599 288.833 181.746 285.787C183.54 286.573 185.1 287.193 186.427 287.66C187.665 288.118 188.973 288.359 190.293 288.372C191.134 288.416 191.969 288.21 192.693 287.78C192.971 287.608 193.198 287.366 193.352 287.078C193.506 286.79 193.581 286.466 193.57 286.14C193.568 285.719 193.446 285.307 193.216 284.953C192.987 284.6 192.661 284.32 192.277 284.147C191.223 283.636 190.059 283.395 188.889 283.447C186.454 283.477 184.025 283.712 181.629 284.147C179.73 282.487 178.213 280.435 177.183 278.133C176.153 275.83 175.634 273.332 175.661 270.81C175.661 266.437 176.91 263.022 179.408 260.566C180.714 259.321 182.257 258.352 183.946 257.718C185.634 257.084 187.434 256.798 189.236 256.876C191.266 256.814 193.285 257.194 195.153 257.992C196.447 258.453 197.515 259.392 198.137 260.617C196.449 260.725 194.861 261.458 193.684 262.673C193.114 263.251 192.664 263.937 192.363 264.691C192.062 265.444 191.915 266.251 191.93 267.063C191.895 267.864 192.039 268.664 192.354 269.402C192.668 270.14 193.144 270.799 193.746 271.329C194.922 272.375 196.449 272.942 198.023 272.917C199.701 272.932 201.326 272.327 202.584 271.217C203.237 270.666 203.755 269.973 204.1 269.192C204.446 268.41 204.609 267.561 204.577 266.707C204.541 265.254 204.158 263.83 203.461 262.555C202.663 261.045 201.569 259.711 200.244 258.632C197.351 256.292 193.293 255.123 188.069 255.124C184.393 255.033 180.74 255.732 177.358 257.174C174.643 258.308 172.293 260.17 170.57 262.555C169.081 264.661 168.281 267.176 168.281 269.755C168.328 272.86 169.399 275.863 171.327 278.297C173.616 281.228 176.648 283.493 180.108 284.857C176.912 285.719 173.843 286.996 170.98 288.657C167.509 290.668 164.529 293.426 162.256 296.731C159.634 300.569 158.303 305.143 158.456 309.789C158.359 315.358 160.177 320.791 163.604 325.181C167.245 329.742 172.033 333.254 177.478 335.355C183.486 337.775 189.912 338.989 196.389 338.926C202.924 339.08 209.408 337.74 215.346 335.008C220.334 332.725 224.62 329.149 227.759 324.65C230.56 320.629 232.07 315.85 232.087 310.95C232.157 306.782 231.085 302.673 228.987 299.071C226.715 295.429 223.328 292.617 219.33 291.054C227.911 288.4 233.685 286.371 236.652 284.966C239.849 283.459 242.625 281.186 244.732 278.349C246.783 275.508 247.85 272.075 247.773 268.572C247.774 263.737 246.156 259.895 242.918 257.046Z" fill="white"/>
<path d="M339.092 195.221C327.953 181.621 313.709 171.784 291.58 165.372C291.027 165.229 289.402 164.822 287.952 164.472C285.213 163.823 284.636 163.647 281.737 163.083C277.279 162.029 272.604 161.107 267.678 160.31L267.478 160.293V159.757C292.983 152.019 311.634 140.721 323.431 125.864C334.996 111.63 341.245 93.8136 341.107 75.474C341.107 52.5407 332.309 34.1307 314.713 20.244C297.095 6.361 272.552 0 239.613 0C231.857 0 237.108 0.057 231.003 0L165.586 0.376007L44.422 232.434C28.677 256.71 20.01 274.134 0 274.134V283.723C9.584 282.761 23.33 283.398 37.709 283.398C54.074 283.398 68.939 283.45 84.75 283.45C92.572 283.45 95.365 288.694 98.542 293.05C114.236 314.581 128.096 350.638 171.323 367.135V367.152C186.891 374.052 215.301 379.152 235.994 377.265C272.569 373.94 290.763 366.265 307.482 357.278C324.201 348.291 338.465 330.918 347.457 314.786C356.431 298.665 360.92 280.156 360.924 259.26C360.924 234.342 353.647 212.996 339.092 195.221ZM204.048 50.281C204.048 38.659 205.015 29.939 206.948 24.121C208.881 18.303 212.355 14.2617 217.369 11.997C222.374 9.74768 229.885 8.61834 239.901 8.60901C263.79 8.60901 271.033 15.932 279.267 26.399C289.167 38.989 294.602 56.568 294.602 80.799C294.602 104.704 289.354 123.839 278.857 138.205C268.362 152.577 262.975 159.752 236.508 159.752H234.108V159.747H204.048V50.281ZM167.61 31.081V159.751H98.656L167.61 31.081ZM223.352 361.568C222.698 361.568 221.94 361.574 221.109 361.58C130.509 357.394 139.884 278.419 145.453 272.849C138.164 272.872 100.775 273.037 78.731 273.037C73.005 273.037 70.779 270.637 67.205 267.83C60.762 262.76 59.438 255.92 59.438 246.017C59.438 233.262 64.495 224.025 72.724 208.144L94.209 168.055H167.609V248.198C183.49 242.156 190.193 241.986 204.047 243.534V168.554H233.305C262.105 168.554 283.085 176.069 296.246 191.098C309.407 206.127 315.989 228.117 315.994 257.068C315.998 321.205 281.259 361.572 223.352 361.572V361.568Z" fill="white"/>
<path d="M434.674 292.203V310.554H432.183V302.64H422.898V310.554H420.407V292.203H422.898V300.123H432.179V292.203H434.674Z" fill="white"/>
<path d="M451.772 292.016C454.55 298.232 457.251 304.34 460.029 310.551H457.277L455.655 306.934H447.208C446.708 308.06 446.083 309.4 445.587 310.551H442.86L451.015 292.016H451.772ZM454.524 304.416L451.403 297.416L448.313 304.416H454.524Z" fill="white"/>
<path d="M478.83 310.554H468.368V292.203H470.86V308.037H478.83V310.554Z" fill="white"/>
<path d="M498.291 310.554H487.829V292.203H490.321V308.037H498.291V310.554Z" fill="white"/>
<path d="M527.826 292.016V310.551H525.334V296.84L517.522 304.601L509.736 296.84V310.551H507.219V292.016H508.398L517.519 301.061L526.646 292.016H527.826Z" fill="white"/>
<path d="M544.913 292.016C547.691 298.232 550.392 304.34 553.17 310.551H550.418L548.796 306.934H540.35C539.85 308.06 539.224 309.4 538.728 310.551H535.998L544.153 292.016H544.913ZM547.666 304.416L544.545 297.416L541.455 304.416H547.666Z" fill="white"/>
<path d="M575.86 310.554H572.765L567.388 303.029H563.981V310.554H561.489V292.203H568.779C570.206 292.219 571.571 292.793 572.58 293.802C573.589 294.812 574.163 296.176 574.179 297.603C574.142 298.765 573.754 299.888 573.065 300.824C572.376 301.76 571.419 302.465 570.321 302.846L575.86 310.554ZM568.048 300.511C570.509 300.511 571.665 299.227 571.665 297.611C571.665 296.035 570.509 294.725 568.048 294.725H563.981V300.516L568.048 300.511Z" fill="white"/>
<path d="M590.885 300.694L599.117 310.552H595.843L589.156 302.581L587.345 304.628V310.552H584.854V292.203H587.345V300.829L595.081 292.203H598.488L590.885 300.694Z" fill="white"/>
<path d="M617.882 301.29C617.874 299.414 618.424 297.577 619.461 296.013C620.499 294.449 621.977 293.228 623.709 292.505C625.441 291.782 627.348 291.589 629.19 291.952C631.031 292.314 632.724 293.215 634.053 294.54C635.382 295.866 636.287 297.555 636.655 299.396C637.022 301.236 636.835 303.145 636.116 304.878C635.398 306.612 634.182 308.094 632.62 309.136C631.059 310.177 629.224 310.732 627.347 310.729C624.843 310.724 622.442 309.729 620.669 307.961C618.896 306.193 617.894 303.795 617.882 301.29V301.29ZM620.425 301.29C620.425 303.126 621.154 304.887 622.452 306.185C623.751 307.483 625.511 308.212 627.347 308.212C629.183 308.212 630.943 307.483 632.242 306.185C633.54 304.887 634.269 303.126 634.269 301.29C634.269 299.455 633.54 297.694 632.242 296.396C630.943 295.098 629.183 294.368 627.347 294.368C625.511 294.368 623.751 295.098 622.452 296.396C621.154 297.694 620.425 299.455 620.425 301.29V301.29Z" fill="white"/>
<path d="M647.98 294.72V300.12H654.38V302.637H647.98V310.551H645.488V292.203H656.764V294.72H647.98Z" fill="white"/>
<path d="M687.726 310.554H677.264V292.203H679.755V308.037H687.726V310.554Z" fill="white"/>
<path d="M696.305 303.765V292.203H698.798V303.238C698.798 306.308 700.946 308.221 703.254 308.221C705.587 308.221 707.71 306.308 707.71 303.238V292.203H710.227V303.765C710.238 304.686 710.066 305.6 709.721 306.454C709.376 307.309 708.865 308.086 708.218 308.741C707.571 309.396 706.8 309.917 705.95 310.272C705.1 310.627 704.188 310.81 703.266 310.81C702.345 310.81 701.433 310.627 700.583 310.272C699.733 309.917 698.962 309.396 698.315 308.741C697.667 308.086 697.156 307.309 696.812 306.454C696.467 305.6 696.295 304.686 696.306 303.765H696.305Z" fill="white"/>
<path d="M728.741 301.115L735.535 310.554H732.435L727.166 303.269L721.922 310.554H718.776L725.621 301.115L719.195 292.203H722.316L727.166 298.941L732.041 292.203H735.162L728.741 301.115Z" fill="white"/>
<path d="M744.109 303.765V292.203H746.598V303.238C746.598 306.308 748.747 308.221 751.054 308.221C753.387 308.221 755.51 306.308 755.51 303.238V292.203H758.028V303.765C758.039 304.686 757.867 305.6 757.522 306.454C757.177 307.309 756.666 308.086 756.019 308.741C755.372 309.396 754.601 309.917 753.751 310.272C752.901 310.627 751.989 310.81 751.067 310.81C750.146 310.81 749.234 310.627 748.384 310.272C747.534 309.917 746.763 309.396 746.116 308.741C745.468 308.086 744.957 307.309 744.613 306.454C744.268 305.6 744.096 304.686 744.107 303.765H744.109Z" fill="white"/>
<path d="M782.474 310.554H779.374L773.998 303.029H770.598V310.554H768.107V292.203H775.397C776.824 292.219 778.189 292.793 779.198 293.802C780.207 294.812 780.781 296.176 780.797 297.603C780.76 298.765 780.372 299.888 779.683 300.824C778.994 301.76 778.037 302.465 776.939 302.846L782.474 310.554ZM774.662 300.511C777.122 300.511 778.279 299.227 778.279 297.611C778.279 296.035 777.122 294.725 774.662 294.725H770.598V300.516L774.662 300.511Z" fill="white"/>
<path d="M805.521 292.203L798.809 301.509V310.554H796.292V301.509C794.066 298.47 791.81 295.268 789.58 292.203H792.7L797.55 298.941L802.4 292.203H805.521Z" fill="white"/>
<path d="M837.609 294.72H832.18V310.554H829.638V294.72H824.184V292.203H837.609V294.72Z" fill="white"/>
<path d="M860.763 310.554H857.668L852.291 303.029H848.884V310.554H846.393V292.203H853.683C855.11 292.219 856.475 292.793 857.484 293.802C858.494 294.811 859.068 296.176 859.083 297.603C859.046 298.765 858.658 299.888 857.969 300.824C857.281 301.76 856.324 302.465 855.226 302.846L860.763 310.554ZM852.946 300.511C855.412 300.511 856.568 299.227 856.568 297.611C856.568 296.035 855.412 294.725 852.946 294.725H848.884V300.516L852.946 300.511Z" fill="white"/>
<path d="M876.654 292.016C879.432 298.232 882.133 304.34 884.911 310.551H882.158L880.537 306.934H872.09C871.59 308.06 870.965 309.4 870.468 310.551H867.742L875.898 292.016H876.654ZM879.406 304.416L876.285 297.416L873.195 304.416H879.406Z" fill="white"/>
<path d="M897.373 310.738C894.595 304.528 891.894 298.414 889.116 292.203H891.843L897.716 305.336L903.533 292.203H906.285L898.11 310.738H897.373Z" fill="white"/>
<path d="M917.121 294.72V300.12H923.521V302.637H917.121V308.037H925.905V310.554H914.63V292.203H925.905V294.72H917.121Z" fill="white"/>
<path d="M945.73 310.554H935.267V292.203H937.759V308.037H945.73V310.554Z" fill="white"/>
<path d="M452.317 63.0547C463.433 87.9067 474.242 112.35 485.378 137.223H474.344L467.854 122.75H434.054C432.069 127.25 429.554 132.596 427.565 137.223H416.656L449.267 63.0547H452.317ZM463.33 112.678L450.843 84.6517L438.478 112.678H463.33Z" fill="white"/>
<path d="M508.162 137.224V63.7734H532.707C554.427 63.7734 568.286 78.8814 568.286 100.601C568.286 121.174 554.427 137.224 532.707 137.224H508.162ZM518.132 127.152H532.707C547.307 127.152 558.107 115.504 558.107 100.601C558.107 85.8204 547.401 73.9674 532.707 73.9674H518.132V127.152Z" fill="white"/>
<path d="M618.236 63.0547C629.352 87.9067 640.161 112.35 651.277 137.223H640.263L633.774 122.75H599.974C597.988 127.25 595.474 132.596 593.485 137.223H582.575L615.207 63.0547H618.236ZM629.25 112.678L616.762 84.6517L604.398 112.678H629.25Z" fill="white"/>
<path d="M756.315 63.0547V137.223H746.346V82.3597L715.086 113.415L683.929 82.3597V137.223H673.857V63.0547H678.586L715.086 99.2477L751.607 63.0547H756.315Z" fill="white"/>
<path d="M786.735 132.821C784.557 131.415 782.551 129.76 780.758 127.888L788.209 121.071C791.055 123.691 798.281 127.888 804.484 127.888C810.871 127.888 818.322 125.063 818.322 116.772C818.322 113.087 816.337 109.32 802.682 104.284C790.727 99.9837 782.334 94.5197 782.334 83.1987C782.334 71.7557 791.362 63.0547 804.791 63.0547C812.06 63.3068 819.111 65.5984 825.139 69.6677L818.732 77.4257C818.732 77.4257 811.608 73.1257 805.303 73.1257C797.442 73.1257 792.503 76.7907 792.503 83.0957C792.503 89.2777 799.013 92.1027 806.362 94.6207C823.149 100.821 828.492 107.211 828.492 116.873C828.492 128.624 818.317 137.959 804.479 137.959C798.191 138.003 792.026 136.218 786.735 132.821V132.821Z" fill="white"/>
<path d="M945.388 137.225H933.125L925.244 127.46C917.588 134.502 910.444 137.96 903.422 137.96C891.036 137.96 881.599 129.566 881.599 117.816C881.599 110.671 885.693 103.547 891.978 99.0227L898.283 94.3147C893.554 89.0737 890.832 83.4037 890.832 79.3087C890.832 69.7697 897.546 63.0547 907.72 63.0547C917.158 63.0547 924.834 69.8717 924.834 78.3677C924.834 84.9797 920.843 89.3807 911.917 96.3007L926.186 113.619L936.892 102.708L942.972 108.788L931.958 120.846L945.388 137.225ZM903.954 101.564C892.838 109.22 890.934 112.25 890.934 117.613C890.934 124.103 896.195 129.139 903.012 129.139C907.823 129.139 913.186 126.314 919.471 120.339L903.954 101.564ZM906.676 89.4857C913.186 84.5517 915.476 82.0337 915.476 78.1647C915.476 73.7427 912.344 71.1227 907.513 71.1227C903.848 71.1227 899.959 73.0227 899.959 77.8377C899.962 80.0477 900.498 82.2387 906.676 89.4857Z" fill="white"/>
<path d="M456.847 217.93C465.419 220.613 469.352 227.854 469.352 233.642C469.352 243.767 463.866 254.417 445.774 254.417H416.932V182.039H445.472C457.049 182.039 466.549 190.839 466.549 200.665C466.549 205.728 464.391 212.142 456.726 215.853L456.847 217.93ZM426.855 212.343H443.616C450.736 212.343 455.597 208.511 455.597 202.622C455.597 196.833 450.736 191.972 443.616 191.972H426.855V212.343ZM458.38 233.643C458.38 227.855 455.395 222.369 443.717 222.369H426.855V244.492H443.717C454.044 244.492 458.38 239.431 458.38 233.642V233.643Z" fill="white"/>
<path d="M514.31 227.652V182.039H524.133V225.575C524.133 237.675 532.604 245.22 541.7 245.22C550.9 245.22 559.268 237.676 559.268 225.575V182.039H569.191V227.652C569.191 243.667 557.937 255.143 541.7 255.143C525.585 255.143 514.31 243.667 514.31 227.652Z" fill="white"/>
<path d="M666.368 191.972H644.968V254.417H634.944V191.972H613.444V182.039H666.368V191.972Z" fill="white"/>
<path d="M753.218 254.417H711.971V182.039H721.798V244.492H753.218V254.417Z" fill="white"/>
<path d="M808.845 191.972V213.272H834.077V223.192H808.845V244.492H843.476V254.415H799.023V182.039H843.476V191.972H808.845Z" fill="white"/>
<path d="M947.269 254.417H935.069L913.869 224.748H900.436V254.417H890.613V182.039H919.355C924.986 182.104 930.367 184.37 934.348 188.353C938.329 192.335 940.592 197.718 940.655 203.348C940.655 212.548 934.241 220.815 925.447 224.021L947.269 254.417ZM916.469 214.824C926.169 214.824 930.729 209.762 930.729 203.348C930.729 197.156 926.17 191.972 916.469 191.972H900.434V214.824H916.469Z" fill="white"/>
</g>
<defs>
<clipPath id="clip0_810_2">
<rect width="947.269" height="377.662" fill="white"/>
</clipPath>
</defs>
</svg>
