<svg width="361" height="378" viewBox="0 0 361 378" fill="none" xmlns="http://www.w3.org/2000/svg">
<g clip-path="url(#clip0_806_4)">
<path d="M242.918 257.046C239.521 254.138 235.155 252.611 230.686 252.769C227.591 252.711 224.524 253.374 221.729 254.705C220.531 255.211 219.515 256.068 218.815 257.165C218.115 258.261 217.765 259.544 217.811 260.844C217.763 261.663 217.908 262.482 218.233 263.236C218.558 263.989 219.056 264.656 219.685 265.183C220.902 266.185 222.436 266.722 224.012 266.698C225.702 266.738 227.347 266.156 228.636 265.063C229.248 264.572 229.74 263.948 230.075 263.239C230.409 262.53 230.578 261.753 230.567 260.969C230.546 259.877 230.244 258.81 229.69 257.869C229.158 256.868 228.316 256.067 227.29 255.585C227.678 254.879 228.851 254.532 230.798 254.532C234.297 254.469 237.695 255.7 240.342 257.988C241.605 258.985 242.625 260.256 243.324 261.705C244.024 263.155 244.384 264.744 244.379 266.353C244.376 268.545 243.586 270.662 242.153 272.321C240.673 274.121 238.059 275.877 234.312 277.588C231.528 278.841 228.676 279.938 225.77 280.874C222.644 281.882 218.742 283.051 214.062 284.382L205.748 286.842C200.368 288.715 196.329 291.037 193.631 293.806C192.314 295.137 191.278 296.719 190.585 298.459C189.891 300.198 189.554 302.059 189.593 303.931C189.593 308.458 191.057 311.872 193.984 314.175C196.861 316.461 200.44 317.682 204.114 317.632C207.505 317.665 210.836 316.731 213.714 314.938C215.038 314.217 216.141 313.149 216.904 311.849C217.668 310.549 218.063 309.065 218.048 307.558C218.081 306.722 217.947 305.888 217.655 305.104C217.364 304.32 216.919 303.602 216.348 302.991C215.759 302.401 215.054 301.941 214.278 301.639C213.501 301.337 212.671 301.2 211.838 301.237C210.144 301.173 208.49 301.76 207.214 302.877C206.606 303.442 206.128 304.132 205.815 304.9C205.501 305.669 205.358 306.496 205.397 307.325C205.346 308.087 205.466 308.85 205.75 309.559C206.034 310.268 206.474 310.903 207.037 311.419C208.142 312.364 209.472 313.008 210.898 313.289C210.665 314.07 209.771 314.702 208.21 315.169C206.809 315.61 205.352 315.846 203.883 315.869C201.224 315.842 198.649 314.935 196.56 313.289C195.471 312.53 194.586 311.514 193.984 310.331C193.382 309.148 193.082 307.834 193.109 306.507C193.094 305.384 193.327 304.272 193.791 303.25C194.256 302.228 194.942 301.321 195.798 300.595C198.061 298.728 200.639 297.282 203.411 296.324C206.298 295.231 210.785 293.746 216.873 291.871C221.479 293.671 224.602 296.169 226.24 299.365C227.806 302.283 228.648 305.535 228.694 308.846C228.748 312.995 227.27 317.018 224.543 320.146C221.501 323.566 217.63 326.147 213.302 327.64C208.368 329.431 203.152 330.322 197.902 330.271C192.411 330.356 186.959 329.341 181.866 327.287C177.369 325.505 173.47 322.481 170.625 318.569C168.296 315.274 166.912 311.404 166.625 307.379C166.562 306.599 166.525 305.802 166.525 304.987C166.525 295.233 171.599 288.833 181.746 285.787C183.54 286.573 185.1 287.193 186.427 287.66C187.665 288.118 188.973 288.359 190.293 288.372C191.134 288.416 191.969 288.21 192.693 287.78C192.971 287.608 193.198 287.366 193.352 287.078C193.506 286.79 193.581 286.466 193.57 286.14C193.569 285.719 193.446 285.307 193.217 284.953C192.987 284.6 192.661 284.32 192.277 284.147C191.223 283.636 190.059 283.395 188.889 283.447C186.454 283.477 184.025 283.712 181.629 284.147C179.73 282.487 178.213 280.435 177.183 278.133C176.153 275.83 175.634 273.332 175.661 270.81C175.661 266.437 176.91 263.022 179.408 260.566C180.714 259.321 182.257 258.352 183.946 257.718C185.635 257.084 187.434 256.798 189.236 256.876C191.266 256.814 193.285 257.194 195.153 257.992C196.447 258.453 197.515 259.392 198.137 260.617C196.449 260.725 194.861 261.458 193.684 262.673C193.114 263.251 192.665 263.937 192.363 264.691C192.062 265.444 191.915 266.251 191.93 267.063C191.895 267.864 192.039 268.664 192.354 269.402C192.668 270.14 193.144 270.799 193.746 271.329C194.923 272.375 196.449 272.942 198.023 272.917C199.701 272.932 201.326 272.327 202.584 271.217C203.237 270.666 203.755 269.973 204.101 269.192C204.446 268.41 204.609 267.561 204.577 266.707C204.541 265.254 204.158 263.83 203.461 262.555C202.663 261.045 201.569 259.711 200.244 258.632C197.352 256.292 193.293 255.123 188.069 255.124C184.393 255.033 180.741 255.732 177.358 257.174C174.643 258.308 172.294 260.17 170.57 262.555C169.081 264.661 168.281 267.176 168.281 269.755C168.328 272.86 169.399 275.863 171.327 278.297C173.616 281.228 176.648 283.493 180.108 284.857C176.912 285.719 173.844 286.996 170.98 288.657C167.509 290.668 164.529 293.426 162.256 296.731C159.634 300.569 158.303 305.143 158.456 309.789C158.36 315.358 160.177 320.791 163.604 325.181C167.245 329.742 172.033 333.254 177.478 335.355C183.486 337.775 189.912 338.989 196.389 338.926C202.924 339.08 209.408 337.74 215.346 335.008C220.334 332.725 224.621 329.149 227.759 324.65C230.56 320.629 232.07 315.85 232.087 310.95C232.157 306.782 231.085 302.673 228.987 299.071C226.715 295.429 223.328 292.617 219.33 291.054C227.912 288.4 233.686 286.371 236.652 284.966C239.849 283.459 242.625 281.186 244.732 278.349C246.783 275.508 247.85 272.075 247.773 268.572C247.775 263.737 246.156 259.895 242.918 257.046Z" fill="white"/>
<path d="M339.092 195.221C327.953 181.621 313.709 171.784 291.58 165.372C291.027 165.229 289.402 164.822 287.952 164.472C285.213 163.823 284.636 163.647 281.737 163.083C277.279 162.029 272.604 161.107 267.678 160.31L267.478 160.293V159.757C292.983 152.019 311.634 140.721 323.431 125.864C334.996 111.63 341.245 93.8136 341.107 75.474C341.107 52.5407 332.309 34.1307 314.713 20.244C297.095 6.361 272.552 0 239.613 0C231.857 0 237.108 0.057 231.003 0L165.586 0.376007L44.422 232.434C28.677 256.71 20.01 274.134 0 274.134V283.723C9.584 282.761 23.33 283.398 37.709 283.398C54.074 283.398 68.939 283.45 84.75 283.45C92.572 283.45 95.365 288.694 98.542 293.05C114.236 314.581 128.096 350.638 171.323 367.135V367.152C186.891 374.052 215.301 379.152 235.994 377.265C272.569 373.94 290.763 366.265 307.482 357.278C324.201 348.291 338.465 330.918 347.457 314.786C356.431 298.665 360.92 280.156 360.924 259.26C360.924 234.342 353.647 212.996 339.092 195.221ZM204.048 50.281C204.048 38.659 205.015 29.939 206.948 24.121C208.881 18.303 212.355 14.2617 217.369 11.997C222.374 9.74768 229.885 8.61834 239.901 8.60901C263.79 8.60901 271.033 15.932 279.267 26.399C289.167 38.989 294.602 56.568 294.602 80.799C294.602 104.704 289.354 123.839 278.857 138.205C268.362 152.577 262.975 159.752 236.508 159.752H234.108V159.747H204.048V50.281ZM167.61 31.081V159.751H98.656L167.61 31.081ZM223.352 361.568C222.698 361.568 221.94 361.574 221.109 361.58C130.509 357.394 139.884 278.419 145.453 272.849C138.164 272.872 100.775 273.037 78.731 273.037C73.005 273.037 70.779 270.637 67.205 267.83C60.762 262.76 59.438 255.92 59.438 246.017C59.438 233.262 64.495 224.025 72.724 208.144L94.209 168.055H167.609V248.198C183.49 242.156 190.193 241.986 204.047 243.534V168.554H233.305C262.105 168.554 283.085 176.069 296.246 191.098C309.407 206.127 315.989 228.117 315.994 257.068C315.998 321.205 281.259 361.572 223.352 361.572V361.568Z" fill="white"/>
</g>
<defs>
<clipPath id="clip0_806_4">
<rect width="360.924" height="377.662" fill="white"/>
</clipPath>
</defs>
</svg>
