<svg width="360.924" height="377.662" viewBox="0 0 360.924 377.662" fill="none" xmlns="http://www.w3.org/2000/svg">
<path d="M242.918 257.042C239.521 254.134 235.155 252.607 230.686 252.765C227.591 252.707 224.524 253.37 221.729 254.701C220.531 255.207 219.515 256.065 218.815 257.161C218.115 258.257 217.765 259.54 217.811 260.84C217.763 261.659 217.908 262.479 218.233 263.232C218.558 263.985 219.056 264.652 219.685 265.179C220.902 266.181 222.436 266.718 224.012 266.694C225.702 266.734 227.347 266.152 228.636 265.059C229.248 264.568 229.74 263.945 230.075 263.235C230.409 262.526 230.578 261.749 230.567 260.965C230.546 259.873 230.244 258.806 229.69 257.865C229.158 256.864 228.316 256.063 227.29 255.581C227.678 254.875 228.851 254.528 230.798 254.528C234.297 254.465 237.695 255.696 240.342 257.984C241.605 258.981 242.625 260.252 243.324 261.701C244.024 263.151 244.384 264.74 244.379 266.349C244.376 268.541 243.586 270.658 242.153 272.317C240.673 274.117 238.059 275.873 234.312 277.584C231.528 278.837 228.676 279.934 225.77 280.87C222.644 281.878 218.742 283.047 214.062 284.378L205.748 286.838C200.368 288.711 196.329 291.033 193.631 293.802C192.314 295.133 191.278 296.715 190.585 298.455C189.891 300.194 189.554 302.055 189.593 303.927C189.593 308.454 191.057 311.868 193.984 314.171C196.861 316.457 200.44 317.678 204.114 317.628C207.505 317.662 210.836 316.727 213.714 314.934C215.038 314.213 216.141 313.145 216.904 311.845C217.668 310.545 218.063 309.062 218.048 307.554C218.081 306.718 217.947 305.884 217.655 305.1C217.364 304.316 216.919 303.598 216.348 302.987C215.759 302.398 215.054 301.937 214.278 301.635C213.501 301.333 212.671 301.196 211.838 301.233C210.144 301.169 208.49 301.756 207.214 302.873C206.606 303.438 206.128 304.128 205.815 304.896C205.501 305.665 205.358 306.492 205.397 307.321C205.346 308.083 205.466 308.846 205.75 309.555C206.034 310.264 206.474 310.9 207.037 311.415C208.142 312.36 209.472 313.004 210.898 313.285C210.665 314.066 209.771 314.698 208.21 315.165C206.809 315.606 205.352 315.842 203.883 315.865C201.224 315.838 198.649 314.931 196.56 313.285C195.471 312.526 194.586 311.51 193.984 310.327C193.382 309.144 193.082 307.83 193.109 306.503C193.094 305.38 193.327 304.268 193.791 303.246C194.256 302.224 194.942 301.317 195.798 300.591C198.061 298.724 200.639 297.278 203.411 296.32C206.298 295.227 210.785 293.742 216.873 291.867C221.479 293.667 224.602 296.165 226.24 299.361C227.806 302.279 228.648 305.531 228.694 308.842C228.748 312.991 227.27 317.014 224.543 320.142C221.501 323.562 217.63 326.143 213.302 327.636C208.368 329.427 203.152 330.318 197.902 330.267C192.411 330.352 186.959 329.337 181.866 327.283C177.369 325.501 173.47 322.478 170.625 318.565C168.296 315.27 166.912 311.4 166.625 307.375C166.562 306.595 166.525 305.798 166.525 304.983C166.525 295.229 171.599 288.829 181.746 285.783C183.54 286.569 185.1 287.189 186.427 287.656C187.665 288.114 188.973 288.355 190.293 288.368C191.134 288.412 191.969 288.206 192.693 287.776C192.971 287.604 193.198 287.362 193.352 287.074C193.506 286.786 193.581 286.462 193.57 286.136C193.569 285.715 193.446 285.303 193.217 284.949C192.987 284.596 192.661 284.316 192.277 284.143C191.223 283.632 190.059 283.391 188.889 283.443C186.454 283.474 184.025 283.708 181.629 284.143C179.73 282.483 178.213 280.431 177.183 278.129C176.153 275.826 175.634 273.328 175.661 270.806C175.661 266.433 176.91 263.018 179.408 260.562C180.714 259.317 182.257 258.349 183.946 257.714C185.635 257.08 187.434 256.794 189.236 256.872C191.266 256.81 193.285 257.19 195.153 257.988C196.447 258.449 197.515 259.389 198.137 260.613C196.449 260.721 194.861 261.454 193.684 262.669C193.114 263.247 192.665 263.933 192.363 264.687C192.062 265.441 191.915 266.247 191.93 267.059C191.895 267.861 192.039 268.66 192.354 269.398C192.668 270.137 193.144 270.795 193.746 271.325C194.923 272.372 196.449 272.938 198.023 272.913C199.701 272.928 201.326 272.323 202.584 271.213C203.237 270.662 203.755 269.969 204.101 269.188C204.446 268.406 204.609 267.557 204.577 266.703C204.541 265.25 204.158 263.827 203.461 262.551C202.663 261.041 201.569 259.707 200.244 258.628C197.352 256.288 193.293 255.119 188.069 255.12C184.393 255.029 180.741 255.728 177.358 257.17C174.643 258.304 172.294 260.166 170.57 262.551C169.081 264.657 168.281 267.172 168.281 269.751C168.328 272.856 169.399 275.859 171.327 278.293C173.616 281.224 176.648 283.49 180.108 284.853C176.912 285.715 173.844 286.992 170.98 288.653C167.509 290.664 164.529 293.422 162.256 296.727C159.634 300.565 158.303 305.139 158.456 309.785C158.36 315.354 160.177 320.787 163.604 325.177C167.245 329.739 172.033 333.25 177.478 335.351C183.486 337.772 189.912 338.985 196.389 338.922C202.924 339.076 209.408 337.736 215.346 335.004C220.334 332.722 224.621 329.145 227.759 324.646C230.56 320.625 232.07 315.846 232.087 310.946C232.157 306.778 231.085 302.669 228.987 299.067C226.715 295.425 223.328 292.613 219.33 291.05C227.912 288.396 233.686 286.367 236.652 284.962C239.849 283.455 242.625 281.182 244.732 278.345C246.783 275.504 247.85 272.071 247.773 268.568C247.775 263.733 246.156 259.891 242.918 257.042Z" fill="black"/>
<path d="M339.092 195.221C327.953 181.621 313.709 171.784 291.58 165.372C291.027 165.229 289.402 164.822 287.952 164.472C285.213 163.823 284.636 163.647 281.737 163.083C277.279 162.029 272.604 161.107 267.678 160.31L267.478 160.293V159.757C292.983 152.019 311.634 140.721 323.431 125.864C334.996 111.63 341.245 93.8136 341.107 75.474C341.107 52.5407 332.309 34.1307 314.713 20.244C297.095 6.361 272.552 0 239.613 0C231.857 0 237.108 0.057 231.003 0L165.586 0.376007L44.422 232.434C28.677 256.71 20.01 274.134 0 274.134V283.723C9.584 282.761 23.33 283.398 37.709 283.398C54.074 283.398 68.939 283.45 84.75 283.45C92.572 283.45 95.365 288.694 98.542 293.05C114.236 314.581 128.096 350.638 171.323 367.135V367.152C186.891 374.052 215.301 379.152 235.994 377.265C272.569 373.94 290.763 366.265 307.482 357.278C324.201 348.291 338.465 330.918 347.457 314.786C356.431 298.665 360.92 280.156 360.924 259.26C360.924 234.342 353.647 212.996 339.092 195.221ZM204.048 50.281C204.048 38.659 205.015 29.939 206.948 24.121C208.881 18.303 212.355 14.2617 217.369 11.997C222.374 9.74768 229.885 8.61834 239.901 8.60901C263.79 8.60901 271.033 15.932 279.267 26.399C289.167 38.989 294.602 56.568 294.602 80.799C294.602 104.704 289.354 123.839 278.857 138.205C268.362 152.577 262.975 159.752 236.508 159.752H234.108V159.747H204.048V50.281ZM167.61 31.081V159.751H98.656L167.61 31.081ZM223.352 361.568C222.698 361.568 221.94 361.574 221.109 361.58C130.509 357.394 139.884 278.419 145.453 272.849C138.164 272.872 100.775 273.037 78.731 273.037C73.005 273.037 70.779 270.637 67.205 267.83C60.762 262.76 59.438 255.92 59.438 246.017C59.438 233.262 64.495 224.025 72.724 208.144L94.209 168.055H167.609V248.198C183.49 242.156 190.193 241.986 204.047 243.534V168.554H233.305C262.105 168.554 283.085 176.069 296.246 191.098C309.407 206.127 315.989 228.117 315.994 257.068C315.998 321.205 281.259 361.572 223.352 361.572V361.568Z" fill="black"/>
</svg>
