<svg width="14" height="18" viewBox="0 0 14 18" fill="none" xmlns="http://www.w3.org/2000/svg">
<g clip-path="url(#clip0_806_2)">
<path d="M9.69983 16.997C8.49983 16.997 7.39983 16.697 6.49983 15.897C5.69983 15.297 4.99983 14.597 4.39983 13.697C3.09983 11.997 1.99983 9.99704 1.19983 7.89704C0.899835 7.19704 0.799835 6.39704 0.799835 5.49704C0.699835 3.69704 1.69983 1.99704 3.29983 0.997043C3.49983 0.897043 3.69983 0.797043 3.89983 0.797043C4.09983 0.697043 4.39983 0.797043 4.49983 0.997043C4.59983 1.09704 4.69983 1.19704 4.69983 1.29704C5.19983 2.29704 5.59983 3.29704 5.89983 4.29704C5.99983 4.49704 5.99983 4.59704 6.09983 4.69704C6.09983 4.99704 5.99983 5.19704 5.79983 5.29704C5.49983 5.39704 5.29983 5.49704 5.09983 5.59704C4.89983 5.69704 4.59983 5.69704 4.39983 5.79704C3.99983 5.79704 3.79983 6.19704 3.79983 6.49704V6.59704C3.99983 7.19704 4.19983 7.69704 4.39983 8.29704C4.99983 9.79704 5.89983 11.297 6.99983 12.497C7.19983 12.697 7.29983 12.897 7.49983 12.997C7.69983 13.297 8.19983 13.297 8.49983 13.097L8.59983 12.997C8.79983 12.797 8.99983 12.597 9.19983 12.397C9.29983 12.297 9.49983 12.197 9.69983 12.097C9.89983 11.997 10.0998 11.997 10.2998 12.097C10.3998 12.197 10.5998 12.297 10.6998 12.397C11.3998 13.197 11.9998 13.997 12.5998 14.897C12.6998 14.997 12.6998 15.097 12.7998 15.197C12.8998 15.497 12.8998 15.797 12.5998 16.097C12.3998 16.297 12.1998 16.497 11.8998 16.597C11.1998 16.797 10.4998 16.997 9.69983 16.997Z" stroke="#202020" stroke-width="1.5"/>
</g>
<defs>
<clipPath id="clip0_806_2">
<rect width="13.5" height="17.8" fill="white"/>
</clipPath>
</defs>
</svg>
