<svg width="35" height="89" viewBox="0 0 35 89" fill="none" xmlns="http://www.w3.org/2000/svg">
<g clip-path="url(#clip0_903_2)">
<path d="M21.093 7.443C21.093 4.83233 21.6863 2.75567 22.873 1.213C24.119 -0.389003 25.6913 -1.48667 27.59 -2.08V1.213C26.878 1.68767 26.1957 2.34033 25.543 3.171C24.8903 4.00167 24.564 5.307 24.564 7.087V10.113H27.59V17.945H21.093V7.443ZM7.654 7.443C7.654 4.83233 8.24733 2.75567 9.434 1.213C10.68 -0.389003 12.2523 -1.48667 14.151 -2.08V1.213C13.439 1.68767 12.7567 2.34033 12.104 3.171C11.4513 4.00167 11.125 5.307 11.125 7.087V10.113H14.151V17.945H7.654V7.443Z" fill="#613842"/>
</g>
<defs>
<clipPath id="clip0_903_2">
<rect width="35" height="89" fill="white"/>
</clipPath>
</defs>
</svg>
