<svg width="35" height="89" viewBox="0 0 35 89" fill="none" xmlns="http://www.w3.org/2000/svg">
<g clip-path="url(#clip0_903_4)">
<path d="M13.907 81.557C13.907 84.1677 13.3137 86.2443 12.127 87.787C10.881 89.389 9.30866 90.4867 7.41 91.08V87.787C8.122 87.3123 8.80433 86.6597 9.457 85.829C10.1097 84.9983 10.436 83.693 10.436 81.913V78.887H7.41V71.055H13.907V81.557ZM27.346 81.557C27.346 84.1677 26.7527 86.2443 25.566 87.787C24.32 89.389 22.7477 90.4867 20.849 91.08V87.787C21.561 87.3123 22.2433 86.6597 22.896 85.829C23.5487 84.9983 23.875 83.693 23.875 81.913V78.887H20.849L20.849 71.055H27.346V81.557Z" fill="#613842"/>
</g>
<defs>
<clipPath id="clip0_903_4">
<rect width="35" height="89" fill="white"/>
</clipPath>
</defs>
</svg>
