<svg width="21" height="21" viewBox="0 0 21 21" fill="none" xmlns="http://www.w3.org/2000/svg">
<path d="M14.0799 12.4228C15.9559 14.2602 17.8272 16.0935 19.6939 17.9228C20.0079 18.2308 20.2819 18.5838 20.6129 18.8708C20.7126 18.9312 20.7965 19.0146 20.8574 19.114C20.9184 19.2133 20.9547 19.3259 20.9633 19.4421C20.9719 19.5584 20.9526 19.675 20.9069 19.7823C20.8613 19.8896 20.7906 19.9844 20.7009 20.0588C20.6249 20.1458 20.5629 20.2458 20.4859 20.3318C19.7289 21.1858 19.4469 21.2188 18.6299 20.4158C16.6959 18.5158 14.7849 16.5898 12.8629 14.6748C12.6849 14.4978 12.4999 14.3278 12.3279 14.1628C10.723 15.3015 8.74759 15.7928 6.79626 15.5386C4.84493 15.2844 3.06133 14.3035 1.80169 12.7916C0.542048 11.2798 -0.10091 9.34845 0.001274 7.38329C0.103458 5.41812 0.943252 3.56384 2.3529 2.19081C3.68749 0.896536 5.44151 0.123024 7.2972 0.0103911C9.1529 -0.102242 10.9876 0.453454 12.4689 1.57681C14.089 2.82465 15.162 4.65207 15.4625 6.6748C15.7629 8.69754 15.2673 10.758 14.0799 12.4228V12.4228ZM12.9259 7.80281C12.9408 7.1003 12.8103 6.40229 12.5427 5.75258C12.2751 5.10287 11.8761 4.51547 11.3708 4.02722C10.8654 3.53898 10.2646 3.16043 9.6061 2.91531C8.94757 2.6702 8.24549 2.5638 7.54391 2.60281C6.20499 2.66678 4.94292 3.24699 4.02267 4.22163C3.10241 5.19628 2.59554 6.48956 2.60848 7.82994C2.62142 9.17033 3.15317 10.4536 4.09206 11.4103C5.03096 12.367 6.30401 12.9227 7.64391 12.9608C8.33416 12.9872 9.02255 12.8728 9.66714 12.6245C10.3117 12.3763 10.899 11.9994 11.3932 11.5168C11.8874 11.0342 12.2782 10.456 12.5417 9.81749C12.8052 9.17898 12.9359 8.49349 12.9259 7.80281V7.80281Z" fill="black"/>
</svg>
