<svg xmlns="http://www.w3.org/2000/svg" width="20.966" height="21" viewBox="0 0 20.966 21" class="">
  <path id="Path_1" data-name="Path 1" d="M360.86,235.542q2.814,2.756,5.614,5.5c.314.308.588.661.919.948a.731.731,0,0,1,.088,1.188c-.076.087-.138.187-.215.273-.757.854-1.039.887-1.856.084-1.934-1.9-3.845-3.826-5.767-5.741-.178-.177-.363-.347-.535-.512a7.815,7.815,0,0,1-9.975-11.972,7.779,7.779,0,0,1,10.116-.614A7.9,7.9,0,0,1,360.86,235.542Zm-1.154-4.62a5.1,5.1,0,0,0-5.382-5.2,5.183,5.183,0,0,0,.1,10.358A5.088,5.088,0,0,0,359.706,230.922Z" transform="translate(-346.78 -223.119)" fill="#fff"/>
</svg>